<svg width="22" height="22" viewBox="0 0 22 22" fill="none" xmlns="http://www.w3.org/2000/svg">
<path fill-rule="evenodd" clip-rule="evenodd" d="M17.4167 3.66666C18.4292 3.66666 19.25 4.48747 19.25 5.49999V17.4167C19.25 18.4292 18.4292 19.25 17.4167 19.25H4.58333C3.57081 19.25 2.75 18.4292 2.75 17.4167V5.49999C2.75 4.48747 3.57081 3.66666 4.58333 3.66666H5.5V2.29166C5.5 2.03853 5.7052 1.83333 5.95833 1.83333H6.875C7.12813 1.83333 7.33333 2.03853 7.33333 2.29166V3.66666H14.6667V2.29166C14.6667 2.03853 14.8719 1.83333 15.125 1.83333H16.0417C16.2948 1.83333 16.5 2.03853 16.5 2.29166V3.66666H17.4167ZM4.58333 17.4167H17.4167V7.33333H4.58333V17.4167ZM10.5417 9.16666C10.2885 9.16666 10.0833 9.37187 10.0833 9.625V10.5417C10.0833 10.7948 10.2885 11 10.5417 11H15.125C15.3781 11 15.5833 10.7948 15.5833 10.5417V9.625C15.5833 9.37187 15.3781 9.16666 15.125 9.16666H10.5417ZM8.25 10.5417C8.25 10.7948 8.0448 11 7.79167 11H6.875C6.62187 11 6.41667 10.7948 6.41667 10.5417V9.625C6.41667 9.37187 6.62187 9.16666 6.875 9.16666H7.79167C8.0448 9.16666 8.25 9.37187 8.25 9.625V10.5417ZM11.4583 14.6667C11.7115 14.6667 11.9167 14.4615 11.9167 14.2083V13.2917C11.9167 13.0385 11.7115 12.8333 11.4583 12.8333H6.875C6.62187 12.8333 6.41667 13.0385 6.41667 13.2917V14.2083C6.41667 14.4615 6.62187 14.6667 6.875 14.6667H11.4583ZM14.2083 14.6667C13.9552 14.6667 13.75 14.4615 13.75 14.2083V13.2917C13.75 13.0385 13.9552 12.8333 14.2083 12.8333H15.125C15.3781 12.8333 15.5833 13.0385 15.5833 13.2917V14.2083C15.5833 14.4615 15.3781 14.6667 15.125 14.6667H14.2083Z" fill="#EEEEEF"/>
</svg>
