<svg width="22" height="22" viewBox="0 0 22 22" fill="none" xmlns="http://www.w3.org/2000/svg">
<path fill-rule="evenodd" clip-rule="evenodd" d="M16.0285 20.0532C16.3201 19.8912 16.5007 19.5836 16.5 19.25V3.66667C16.5 2.65415 15.6792 1.83334 14.6667 1.83334H3.66665C2.65413 1.83334 1.83331 2.65415 1.83331 3.66667V19.25C1.83265 19.5836 2.01322 19.8912 2.30481 20.0532C2.59639 20.2151 2.95296 20.206 3.23582 20.0292L8.68082 16.6192C8.97807 16.4334 9.35524 16.4334 9.65248 16.6192L15.0975 20.0292C15.3803 20.206 15.7369 20.2151 16.0285 20.0532ZM18.3333 3.66667H19.25C19.7562 3.66667 20.1667 4.07708 20.1667 4.58334V17.4167C20.1667 17.9229 19.7562 18.3333 19.25 18.3333H18.3333V3.66667Z" fill="#EEEEEF"/>
</svg>
