<svg width="22" height="22" viewBox="0 0 22 22" fill="none" xmlns="http://www.w3.org/2000/svg">
<path fill-rule="evenodd" clip-rule="evenodd" d="M11.9167 3.66663H10.0834C9.57709 3.66663 9.16669 4.07703 9.16669 4.58329V17.4166C9.16669 17.9229 9.57709 18.3333 10.0834 18.3333H11.9167C12.4229 18.3333 12.8334 17.9229 12.8334 17.4166V4.58329C12.8334 4.07703 12.4229 3.66663 11.9167 3.66663ZM7.33335 11.9166V17.4166C7.33335 17.9229 6.92295 18.3333 6.41669 18.3333H4.58335C4.07709 18.3333 3.66669 17.9229 3.66669 17.4166V11.9166C3.66669 11.4104 4.07709 11 4.58335 11H6.41669C6.92295 11 7.33335 11.4104 7.33335 11.9166ZM15.5834 7.33329H17.4167C17.9229 7.33329 18.3334 7.7437 18.3334 8.24996V17.4166C18.3334 17.9229 17.9229 18.3333 17.4167 18.3333H15.5834C15.0771 18.3333 14.6667 17.9229 14.6667 17.4166V8.24996C14.6667 7.7437 15.0771 7.33329 15.5834 7.33329Z" fill="#EEEEEF"/>
</svg>
