<svg width="22" height="22" viewBox="0 0 22 22" fill="none" xmlns="http://www.w3.org/2000/svg">
<path fill-rule="evenodd" clip-rule="evenodd" d="M3.66665 3.66663H18.3333C19.3458 3.66663 20.1666 4.48744 20.1666 5.49996V16.5C20.1666 17.5125 19.3458 18.3333 18.3333 18.3333H3.66665C2.65412 18.3333 1.83331 17.5125 1.83331 16.5V5.49996C1.83331 4.48744 2.65412 3.66663 3.66665 3.66663ZM10.2391 13.9516L13.805 11.5683C13.9971 11.4431 14.113 11.2293 14.113 11C14.113 10.7706 13.9971 10.5568 13.805 10.4316L10.2391 8.04829C10.0286 7.90599 9.75677 7.89142 9.53223 8.0104C9.3077 8.12938 9.16711 8.36251 9.16665 8.61662V13.3833C9.16711 13.6374 9.3077 13.8705 9.53223 13.9895C9.75677 14.1085 10.0286 14.0939 10.2391 13.9516Z" fill="#EEEEEF"/>
</svg>
