<svg width="22" height="22" viewBox="0 0 22 22" fill="none" xmlns="http://www.w3.org/2000/svg">
<path fill-rule="evenodd" clip-rule="evenodd" d="M0.916667 1.83333H21.0833C21.5896 1.83333 22 2.24373 22 2.74999V7.33333H20.1667V3.66666H1.83333V14.6667H12.8333V20.1667H6.875C6.62187 20.1667 6.41667 19.9615 6.41667 19.7083V18.7917C6.41667 18.5385 6.62187 18.3333 6.875 18.3333H8.25V16.5H0.916667C0.410406 16.5 0 16.0896 0 15.5833V2.74999C0 2.24373 0.410406 1.83333 0.916667 1.83333ZM20.1667 9.16666H16.5C15.4875 9.16666 14.6667 9.98747 14.6667 11V18.3333C14.6667 19.3459 15.4875 20.1667 16.5 20.1667H20.1667C21.1792 20.1667 22 19.3459 22 18.3333V11C22 9.98747 21.1792 9.16666 20.1667 9.16666ZM20.1667 18.3333H16.5V11H20.1667V18.3333Z" fill="#EEEEEF"/>
</svg>
