<svg width="22" height="22" viewBox="0 0 22 22" fill="none" xmlns="http://www.w3.org/2000/svg">
<path fill-rule="evenodd" clip-rule="evenodd" d="M11 1.83331C5.93737 1.83331 1.83331 5.93737 1.83331 11C1.83331 16.0626 5.93737 20.1666 11 20.1666C16.0626 20.1666 20.1666 16.0626 20.1666 11C20.1666 8.56883 19.2009 6.23725 17.4818 4.51817C15.7627 2.79908 13.4311 1.83331 11 1.83331ZM11 4.58331C12.5188 4.58331 13.75 5.81453 13.75 7.33331C13.75 8.8521 12.5188 10.0833 11 10.0833C9.4812 10.0833 8.24998 8.8521 8.24998 7.33331C8.24998 5.81453 9.4812 4.58331 11 4.58331ZM11 17.4045C13.0305 17.4045 14.9411 16.4435 16.1516 14.8133C16.3392 14.5391 16.3638 14.1849 16.2158 13.8875L16.005 13.4566C15.5437 12.5153 14.5874 11.918 13.5391 11.9166H8.46081C7.39759 11.9178 6.43029 12.5317 5.97665 13.4933L5.78415 13.8966C5.63978 14.1916 5.66426 14.5413 5.84831 14.8133C7.05883 16.4435 8.9695 17.4045 11 17.4045Z" fill="#EEEEEF"/>
</svg>
