<svg width="9" height="16" viewBox="0 0 9 16" fill="none" xmlns="http://www.w3.org/2000/svg">
<path d="M8.38516 7.09994C8.56102 7.27559 8.65994 7.51388 8.66016 7.76244V8.23744C8.65728 8.48546 8.55876 8.72279 8.38516 8.89994L1.96016 15.3124C1.8428 15.4308 1.68305 15.4973 1.51641 15.4973C1.34976 15.4973 1.19001 15.4308 1.07266 15.3124L0.185156 14.4249C0.0675755 14.3097 0.00131702 14.1521 0.00131702 13.9874C0.00131702 13.8228 0.0675755 13.6651 0.185156 13.5499L5.74766 7.99994L0.185156 2.44994C0.0668354 2.33258 0.000282288 2.17284 0.000282288 2.00619C0.000282288 1.83954 0.0668354 1.67979 0.185156 1.56244L1.07266 0.687439C1.19001 0.569118 1.34976 0.502565 1.51641 0.502565C1.68305 0.502565 1.8428 0.569118 1.96016 0.687439L8.38516 7.09994Z" fill="#8D52D9"/>
</svg>
