<svg width="12" height="11" viewBox="0 0 12 11" fill="none" xmlns="http://www.w3.org/2000/svg">
<path fill-rule="evenodd" clip-rule="evenodd" d="M8.95637 4.55635L0.99702 4.621C0.525043 4.621 0.147461 5.00891 0.147461 5.4938C0.147461 5.97869 0.525043 6.3666 0.99702 6.3666L8.95008 6.30195L5.96719 9.37291C5.63366 9.71556 5.63366 10.2651 5.96719 10.6078C6.30072 10.9504 6.83562 10.9504 7.16915 10.6078L11.6057 6.0498C11.7694 5.88171 11.8575 5.65543 11.8575 5.43561C11.8575 5.2158 11.7757 4.98951 11.6057 4.82142L7.16286 0.257002C6.82933 -0.0856524 6.29442 -0.0856524 5.96089 0.257002C5.63366 0.593191 5.63366 1.1492 5.96719 1.48539L8.95637 4.55635Z" fill="#8D52D9"/>
</svg>
