<svg width="7" height="12" viewBox="0 0 7 12" fill="none" xmlns="http://www.w3.org/2000/svg">
<path d="M6.30691 5.36987C6.43002 5.49282 6.49926 5.65963 6.49941 5.83362V6.16612C6.4974 6.33973 6.42844 6.50587 6.30691 6.62987L1.80941 11.1186C1.72726 11.2014 1.61544 11.248 1.49879 11.248C1.38213 11.248 1.27031 11.2014 1.18816 11.1186L0.566912 10.4974C0.484606 10.4167 0.438224 10.3063 0.438224 10.1911C0.438224 10.0759 0.484606 9.96551 0.566912 9.88487L4.46066 5.99987L0.566912 2.11487C0.484087 2.03272 0.4375 1.9209 0.4375 1.80425C0.4375 1.68759 0.484087 1.57577 0.566912 1.49362L1.18816 0.881121C1.27031 0.798296 1.38213 0.751709 1.49879 0.751709C1.61544 0.751709 1.72726 0.798296 1.80941 0.881121L6.30691 5.36987Z" fill="#ffffff"/>
</svg>
