<svg width="32" height="32" viewBox="0 0 32 32" fill="none" xmlns="http://www.w3.org/2000/svg">
<path fill-rule="evenodd" clip-rule="evenodd" d="M25.3333 5.33341H24V3.33341C24 2.96522 23.7015 2.66675 23.3333 2.66675H22C21.6318 2.66675 21.3333 2.96522 21.3333 3.33341V5.33341H10.6667V3.33341C10.6667 2.96522 10.3682 2.66675 10 2.66675H8.66667C8.29848 2.66675 8 2.96522 8 3.33341V5.33341H6.66667C5.19391 5.33341 4 6.52732 4 8.00008V25.3334C4 26.8062 5.19391 28.0001 6.66667 28.0001H25.3333C26.8061 28.0001 28 26.8062 28 25.3334V8.00008C28 6.52732 26.8061 5.33341 25.3333 5.33341ZM25.3333 25.3334H6.66667V10.6667H25.3333V25.3334ZM16.6667 16.0001H15.3333C14.9651 16.0001 14.6667 15.7016 14.6667 15.3334V14.0001C14.6667 13.6319 14.9651 13.3334 15.3333 13.3334H16.6667C17.0349 13.3334 17.3333 13.6319 17.3333 14.0001V15.3334C17.3333 15.7016 17.0349 16.0001 16.6667 16.0001ZM20.6667 16.0001H22C22.3682 16.0001 22.6667 15.7016 22.6667 15.3334V14.0001C22.6667 13.6319 22.3682 13.3334 22 13.3334H20.6667C20.2985 13.3334 20 13.6319 20 14.0001V15.3334C20 15.7016 20.2985 16.0001 20.6667 16.0001ZM11.3333 16.0001H10C9.63181 16.0001 9.33333 15.7016 9.33333 15.3334V14.0001C9.33333 13.6319 9.63181 13.3334 10 13.3334H11.3333C11.7015 13.3334 12 13.6319 12 14.0001V15.3334C12 15.7016 11.7015 16.0001 11.3333 16.0001ZM15.3333 21.3334H16.6667C17.0349 21.3334 17.3333 21.0349 17.3333 20.6667V19.3334C17.3333 18.9652 17.0349 18.6667 16.6667 18.6667H15.3333C14.9651 18.6667 14.6667 18.9652 14.6667 19.3334V20.6667C14.6667 21.0349 14.9651 21.3334 15.3333 21.3334ZM11.3333 21.3334H10C9.63181 21.3334 9.33333 21.0349 9.33333 20.6667V19.3334C9.33333 18.9652 9.63181 18.6667 10 18.6667H11.3333C11.7015 18.6667 12 18.9652 12 19.3334V20.6667C12 21.0349 11.7015 21.3334 11.3333 21.3334Z" fill="#8D52D9"/>
</svg>
