<?xml version="1.0" encoding="UTF-8"?>
<svg width="56px" height="56px" viewBox="0 0 56 56" version="1.1" xmlns="http://www.w3.org/2000/svg" xmlns:xlink="http://www.w3.org/1999/xlink">
    <!-- Generator: Sketch 64 (93537) - https://sketch.com -->
    <title>Group 37</title>
    <desc>Created with Sketch.</desc>
    <g id="Page-1" stroke="none" stroke-width="1" fill="none" fill-rule="evenodd">
        <g id="Group-37" fill="#8D52D9" fill-rule="nonzero">
            <g id="Group" opacity="0.05">
                <circle id="Oval" cx="28" cy="28" r="28"></circle>
            </g>
            <path d="M36,30.938 C35.978,28.264 34.56,25.65 33.522,23.738 C33.292,23.313 33.076,22.917 32.895,22.553 L32.52,21.803 C32.288,21.419 32.02,21.358 31.696,21.8 C31.696,21.8 31.16,22.501 30.819,22.992 C29.588,20.576 28.957,18.707 28.949,18.683 L28.689,17.904 C28.512,17.419 28.233,17.358 27.847,17.739 L27.294,18.292 C26.995,18.591 20,25.647 20,31 C20,35.411 23.589,39 28,39 C32.411,39 36,35.411 36,31 C36,30.999 36,30.998 36,30.997 C36,30.981 36,30.967 36,30.951 L36.006,30.943 L36,30.938 Z M25.002,33.851 C25.077,31.537 26.88,29.252 27.653,28.375 C27.798,28.211 28.055,28.282 28.114,28.493 C28.851,31.163 31.122,32.069 31,34 C30.891,35.729 29.542,37.122 27.772,36.992 C26.189,36.875 24.951,35.438 25.002,33.851 Z" id="Shape"></path>
        </g>
    </g>
</svg>