<?xml version="1.0" encoding="UTF-8"?>
<svg width="56px" height="56px" viewBox="0 0 56 56" version="1.1" xmlns="http://www.w3.org/2000/svg" xmlns:xlink="http://www.w3.org/1999/xlink">
    <!-- Generator: Sketch 64 (93537) - https://sketch.com -->
    <title>Group 40</title>
    <desc>Created with Sketch.</desc>
    <g id="Page-1" stroke="none" stroke-width="1" fill="none" fill-rule="evenodd">
        <g id="Group-40" fill="#8D52D9" fill-rule="nonzero">
            <g id="Group" opacity="0.05">
                <circle id="Oval" cx="28" cy="28" r="28"></circle>
            </g>
            <g id="Group" transform="translate(18.000000, 16.000000)">
                <path d="M6.5918,9.9871 C6.8939,11.2903 7.9211,12.3175 9.2244,12.6197 C8.9223,11.3164 7.8951,10.2892 6.5918,9.9871 Z" id="Path"></path>
                <path d="M10.8105,12.6197 C12.1138,12.3175 13.141,11.2903 13.4431,9.9871 C12.1399,10.2892 11.1127,11.3164 10.8105,12.6197 Z" id="Path"></path>
                <path d="M10.8105,18.2447 C12.1138,17.9425 13.141,16.9153 13.4431,15.6121 C12.1399,15.9142 11.1127,16.9414 10.8105,18.2447 Z" id="Path"></path>
                <path d="M6.5918,15.6121 C6.8939,16.9153 7.9211,17.9425 9.2244,18.2447 C8.9223,16.9414 7.8951,15.9142 6.5918,15.6121 Z" id="Path"></path>
                <path d="M10.0169,4.6216 C9.6907,5.0494 9.3145,5.6921 9.3145,6.3815 C9.3145,7.0688 9.6914,7.7129 10.0183,8.1413 C10.3444,7.7136 10.7207,7.0709 10.7207,6.3815 C10.7206,5.6941 10.3436,5.05 10.0169,4.6216 Z" id="Path"></path>
                <path d="M19.0098,3.9375 C19.8441,2.8512 19.8441,1.8584 19.8441,0.7109 C19.8441,0.323 19.4754,0.0078 19.0868,0.0078 C18.0005,0.0277 17.0515,-0.0491 15.992,0.7282 C12.4517,-0.2427 7.5491,-0.2427 4.0087,0.7282 C2.9657,-0.0374 2.0244,0.0079 0.9134,0.0079 C0.5076,0.0099 0.1748,0.2044 0.1754,0.6109 C0.1754,1.7452 0.1567,2.8513 0.991,3.9375 C-0.5018,10.589 -0.1523,15.0075 0.9902,20.0707 C0.1567,21.1563 0.1754,22.1492 0.1754,23.2966 C0.1761,23.701 0.5563,24.01 0.9607,23.9997 C2.0271,23.9997 2.9657,24.0411 4.0108,23.2749 C7.5498,24.2417 12.451,24.2417 15.99,23.2749 C17.0344,24.0412 17.9772,23.9997 19.0875,23.9997 C19.4878,24.0011 19.8535,23.6894 19.8535,23.2829 C19.8535,22.1485 19.8442,21.1563 19.0106,20.0707 C20.1531,15.0074 20.5026,10.589 19.0098,3.9375 Z M14.2371,14.1159 C14.6257,14.1159 14.9402,14.4304 14.9402,14.819 C14.9402,17.2919 13.1004,19.325 10.7215,19.6698 L10.7215,20.444 C10.7215,21.3709 9.3153,21.3747 9.3153,20.444 L9.3153,19.6698 C6.9364,19.325 5.0966,17.2919 5.0966,14.819 C5.0966,14.4304 5.411,14.1159 5.7997,14.1159 C7.1774,14.1159 8.4209,14.6886 9.3153,15.6041 L9.3153,14.0448 C6.9364,13.7 5.0966,11.6669 5.0966,9.1941 C5.0966,8.8054 5.4111,8.4909 5.7997,8.4909 C7.1775,8.4909 8.421,9.0636 9.3154,9.9792 L9.3154,9.4832 C8.864,9.005 7.9091,7.8262 7.9091,6.3816 C7.9091,4.5352 9.4822,3.1056 9.5495,3.0451 C9.8159,2.8062 10.221,2.8062 10.4875,3.0451 C10.5548,3.1056 12.1279,4.5352 12.1279,6.3816 C12.1279,7.8262 11.1729,9.005 10.7216,9.4832 L10.7216,9.9792 C11.616,9.0636 12.8595,8.4909 14.2372,8.4909 C14.6259,8.4909 14.9404,8.8054 14.9404,9.1941 C14.9404,11.667 13.1005,13.7 10.7217,14.0448 L10.7217,15.6041 C11.6158,14.6885 12.8593,14.1159 14.2371,14.1159 Z" id="Shape"></path>
            </g>
        </g>
    </g>
</svg>