<svg width="44" height="45" viewBox="0 0 44 45" fill="none" xmlns="http://www.w3.org/2000/svg">
<circle opacity="0.2" cx="22" cy="22.5" r="22" fill="#FAAD13"/>
<path d="M22 27.5C21.4477 27.5 21 27.9477 21 28.5V29.5H19C18.4477 29.5 18 29.9477 18 30.5C18 31.0523 18.4477 31.5 19 31.5H25C25.5523 31.5 26 31.0523 26 30.5C26 29.9477 25.5523 29.5 25 29.5H23V28.5C23 27.9477 22.5523 27.5 22 27.5Z" fill="#FAAD13"/>
<path d="M17 15.5C17 14.3954 17.8954 13.5 19 13.5H25C26.1046 13.5 27 14.3954 27 15.5V20.5C27 23.2614 24.7614 25.5 22 25.5C19.2386 25.5 17 23.2614 17 20.5V15.5Z" fill="#FAAD13"/>
<path d="M14 15.5C12.3431 15.5 11 16.8431 11 18.5V19.5C11 21.1569 12.3431 22.5 14 22.5C14.5523 22.5 15 22.0523 15 21.5C15 20.9477 14.5523 20.5 14 20.5C13.4477 20.5 13 20.0523 13 19.5V18.5C13 17.9477 13.4477 17.5 14 17.5C14.5523 17.5 15 17.0523 15 16.5C15 15.9477 14.5523 15.5 14 15.5Z" fill="#FAAD13"/>
<path d="M30 15.5C31.6569 15.5 33 16.8431 33 18.5V19.5C33 21.1569 31.6569 22.5 30 22.5C29.4477 22.5 29 22.0523 29 21.5C29 20.9477 29.4477 20.5 30 20.5C30.5523 20.5 31 20.0523 31 19.5V18.5C31 17.9477 30.5523 17.5 30 17.5C29.4477 17.5 29 17.0523 29 16.5C29 15.9477 29.4477 15.5 30 15.5Z" fill="#FAAD13"/>
</svg>
