<svg width="44" height="44" viewBox="0 0 44 44" fill="none" xmlns="http://www.w3.org/2000/svg">
<path d="M22 27C21.4477 27 21 27.4477 21 28V29H19C18.4477 29 18 29.4477 18 30C18 30.5523 18.4477 31 19 31H25C25.5523 31 26 30.5523 26 30C26 29.4477 25.5523 29 25 29H23V28C23 27.4477 22.5523 27 22 27Z" fill="#FAAD13"/>
<path d="M17 15C17 13.8954 17.8954 13 19 13H25C26.1046 13 27 13.8954 27 15V20C27 22.7614 24.7614 25 22 25C19.2386 25 17 22.7614 17 20V15Z" fill="#FAAD13"/>
<path d="M14 15C12.3431 15 11 16.3431 11 18V19C11 20.6569 12.3431 22 14 22C14.5523 22 15 21.5523 15 21C15 20.4477 14.5523 20 14 20C13.4477 20 13 19.5523 13 19V18C13 17.4477 13.4477 17 14 17C14.5523 17 15 16.5523 15 16C15 15.4477 14.5523 15 14 15Z" fill="#FAAD13"/>
<path d="M30 15C31.6569 15 33 16.3431 33 18V19C33 20.6569 31.6569 22 30 22C29.4477 22 29 21.5523 29 21C29 20.4477 29.4477 20 30 20C30.5523 20 31 19.5523 31 19V18C31 17.4477 30.5523 17 30 17C29.4477 17 29 16.5523 29 16C29 15.4477 29.4477 15 30 15Z" fill="#FAAD13"/>
</svg>
