<svg width="24" height="24" viewBox="0 0 24 24" fill="none" xmlns="http://www.w3.org/2000/svg">
<circle cx="12" cy="12" r="11.5" stroke="#E0E0E0"/>
<path fill-rule="evenodd" clip-rule="evenodd" d="M11.951 12.5712C11.3767 12.5652 10.8088 12.4546 10.2779 12.2452C9.73196 12.0298 9.23588 11.7141 8.81802 11.3162C8.40016 10.9182 8.06869 10.4458 7.84254 9.92579C7.6164 9.40582 7.5 8.84852 7.5 8.28571C7.5 7.72291 7.6164 7.16561 7.84254 6.64564C8.06869 6.12568 8.40016 5.65322 8.81802 5.25526C9.23588 4.85729 9.73196 4.54161 10.2779 4.32623C10.8239 4.11085 11.4091 4 12 4C13.1935 4 14.3381 4.45153 15.182 5.25526C16.0259 6.05898 16.5 7.14907 16.5 8.28571C16.5 8.84209 16.3864 9.38732 16.1714 9.89326C15.9526 9.8538 15.728 9.83325 15.5 9.83325C13.8055 9.83325 12.3002 10.9677 11.951 12.5712ZM11.1969 19H6V17.5714C6 16.6242 6.39509 15.7158 7.09835 15.046C7.80161 14.3763 8.75544 14 9.75 14H11.2529C11.0936 14.2631 11 14.5734 11 14.9166V18.1833C11 18.4839 11.0719 18.7594 11.1969 19Z" fill="#828282"/>
<path fill-rule="evenodd" clip-rule="evenodd" d="M18.125 14.1002V13.2835C18.125 11.9304 16.9497 10.8335 15.5 10.8335C14.0503 10.8335 12.875 11.9304 12.875 13.2835V14.1002C12.3918 14.1002 12 14.4658 12 14.9168V18.1835C12 18.6345 12.3918 19.0002 12.875 19.0002H18.125C18.6082 19.0002 19 18.6345 19 18.1835V14.9168C19 14.4658 18.6082 14.1002 18.125 14.1002ZM13.7499 13.2832C13.7499 12.3811 14.5334 11.6498 15.4999 11.6498C16.4664 11.6498 17.2499 12.3811 17.2499 13.2832V14.0998H13.7499V13.2832ZM15.9376 17.3665C16.1793 17.3665 16.3751 17.1837 16.3751 16.9582V16.1415C16.3751 15.916 16.1793 15.7332 15.9376 15.7332H15.0626C14.821 15.7332 14.6251 15.916 14.6251 16.1415V16.9582C14.6251 17.1837 14.821 17.3665 15.0626 17.3665H15.9376Z" fill="#828282"/>
</svg>
