<svg width="24" height="24" viewBox="0 0 24 24" fill="none" xmlns="http://www.w3.org/2000/svg">
<circle cx="12" cy="12" r="11.5" stroke="#8D52D9"/>
<path d="M18 19H6V17.5714C6 16.6242 6.39509 15.7158 7.09835 15.046C7.80161 14.3763 8.75544 14 9.75 14H14.25C15.2446 14 16.1984 14.3763 16.9017 15.046C17.6049 15.7158 18 16.6242 18 17.5714V19ZM12 12.5714C11.4091 12.5714 10.8239 12.4606 10.2779 12.2452C9.73196 12.0298 9.23588 11.7141 8.81802 11.3162C8.40016 10.9182 8.06869 10.4458 7.84254 9.92579C7.6164 9.40582 7.5 8.84852 7.5 8.28571C7.5 7.72291 7.6164 7.16561 7.84254 6.64564C8.06869 6.12568 8.40016 5.65322 8.81802 5.25526C9.23588 4.85729 9.73196 4.54161 10.2779 4.32623C10.8239 4.11085 11.4091 4 12 4C13.1935 4 14.3381 4.45153 15.182 5.25526C16.0259 6.05898 16.5 7.14907 16.5 8.28571C16.5 9.42236 16.0259 10.5124 15.182 11.3162C14.3381 12.1199 13.1935 12.5714 12 12.5714Z" fill="#8D52D9"/>
</svg>
