<svg width="20" height="20" viewBox="0 0 20 20" fill="none" xmlns="http://www.w3.org/2000/svg">
<path d="M8.19214 14.5413C8.19214 15.5354 8.99804 16.3414 9.99222 16.3414C10.9864 16.3414 11.7923 15.5355 11.7923 14.5413C11.7923 13.5472 9.99222 8.94824 9.99222 8.94824C9.99222 8.94824 8.19214 13.5472 8.19214 14.5413Z" fill="white"/>
<path d="M10.5867 2.49536V5.31536C11.4737 5.38688 12.3152 5.61907 13.0823 5.98282L14.4926 3.54009C13.3061 2.94364 11.985 2.57614 10.5867 2.49536Z" fill="white"/>
<path d="M17.1799 11.9084H19.9999C19.9191 10.5101 19.5516 9.18892 18.9552 8.00244L16.5125 9.41275C16.8762 10.1799 17.1084 11.0214 17.1799 11.9084Z" fill="white"/>
<path d="M9.41326 2.49536C8.01502 2.57614 6.69381 2.94364 5.50732 3.54005L6.91764 5.98278C7.68475 5.61903 8.52627 5.38685 9.41326 5.31532V2.49536Z" fill="white"/>
<path d="M3.48767 9.41275L1.04493 8.00244C0.448486 9.18892 0.0810254 10.5101 0.000244141 11.9084H2.82024C2.89173 11.0214 3.12396 10.1799 3.48767 9.41275Z" fill="white"/>
<path d="M17.179 13.0818C17.0908 14.1738 16.76 15.1973 16.2393 16.0973L18.6763 17.5044C19.4369 16.1898 19.9072 14.6865 19.9999 13.0818H17.179Z" fill="white"/>
<path d="M15.5085 4.12793L14.0981 6.5707C14.8112 7.0648 15.4305 7.68422 15.9246 8.39719L18.3674 6.98687C17.6182 5.85113 16.6442 4.87711 15.5085 4.12793Z" fill="white"/>
<path d="M0 13.0818C0.0927344 14.6865 0.563008 16.1898 1.32359 17.5044L3.76063 16.0973C3.2398 15.1972 2.90902 14.1738 2.82094 13.0818H0Z" fill="white"/>
<path d="M1.63257 6.98663L4.0753 8.39694C4.5694 7.68393 5.18882 7.06455 5.90179 6.57042L4.49147 4.12769C3.35577 4.8769 2.38175 5.85092 1.63257 6.98663Z" fill="white"/>
</svg>
