<svg width="100" height="100" viewBox="0 0 100 100" fill="none" xmlns="http://www.w3.org/2000/svg">
<path fill-rule="evenodd" clip-rule="evenodd" d="M0 50C0 22.3858 22.3858 0 50 0C63.2608 0 75.9785 5.26784 85.3554 14.6447C94.7322 24.0215 100 36.7392 100 50C100 77.6142 77.6143 100 50 100C22.3858 100 0 77.6142 0 50ZM43.6494 66.7504L71.7494 38.6504C72.67 37.6847 72.67 36.1662 71.7494 35.2004L69.0994 32.5504C68.1273 31.5976 66.5715 31.5976 65.5994 32.5504L41.8994 56.2504L34.3994 48.8004C33.9457 48.3171 33.3123 48.0428 32.6494 48.0428C31.9865 48.0428 31.3531 48.3171 30.8994 48.8004L28.2494 51.4504C27.7761 51.9199 27.5099 52.5588 27.5099 53.2254C27.5099 53.892 27.7761 54.531 28.2494 55.0004L40.1494 66.7504C40.6031 67.2338 41.2365 67.508 41.8994 67.508C42.5623 67.508 43.1957 67.2338 43.6494 66.7504Z" fill="white"/>
</svg>
