<svg width="18" height="20" viewBox="0 0 18 20" fill="none" xmlns="http://www.w3.org/2000/svg">
<path d="M18 17.0026C18 18.658 16.6569 20 15 20C13.3431 20 12 18.658 12 17.0026C11.995 16.9194 11.995 16.836 12 16.7528C12.0175 16.5604 11.9245 16.3747 11.76 16.2732L5.22 12.4565C5.05548 12.351 4.84452 12.351 4.68 12.4565C4.18968 12.8075 3.60316 12.9993 3 13.006C1.34315 13.006 0 11.664 0 10.0085C0 8.3531 1.34315 7.01111 3 7.01111C3.60101 7.0119 4.18734 7.19672 4.68 7.54065C4.84452 7.64612 5.05548 7.64612 5.22 7.54065L11.77 3.72392C11.924 3.62338 12.0119 3.44775 12 3.26431C11.995 3.18112 11.995 3.09771 12 3.01452C11.9921 1.60732 12.965 0.384099 14.3388 0.0739903C15.7127 -0.236118 17.1174 0.450391 17.7158 1.72431C18.3141 2.99822 17.945 4.51651 16.8283 5.37416C15.7117 6.23181 14.1483 6.19787 13.07 5.29258L6.23 9.28916C6.06548 9.39064 5.97255 9.57635 5.99 9.76875C6.00333 9.93501 6.00333 10.1021 5.99 10.2683C5.97255 10.4607 6.06548 10.6464 6.23 10.7479L12.78 14.5646C12.9445 14.6701 13.1555 14.6701 13.32 14.5646C13.8091 14.2101 14.3958 14.0147 15 14.0051C16.6569 14.0051 18 15.3471 18 17.0026Z" fill="#ffffff"/>
</svg>
