<svg width="16" height="16" viewBox="0 0 16 16" fill="none" xmlns="http://www.w3.org/2000/svg">
<path fill-rule="evenodd" clip-rule="evenodd" d="M14 4.00001C14 3.26363 13.403 2.66668 12.6667 2.66668H12V1.66668C12 1.48258 11.8508 1.33334 11.6667 1.33334H11C10.8159 1.33334 10.6667 1.48258 10.6667 1.66668V2.66668H5.33333V1.66668C5.33333 1.48258 5.18409 1.33334 5 1.33334H4.33333C4.14924 1.33334 4 1.48258 4 1.66668V2.66668H3.33333C2.59695 2.66668 2 3.26363 2 4.00001V12.6667C2 13.4031 2.59695 14 3.33333 14H12.6667C13.403 14 14 13.4031 14 12.6667V4.00001ZM12.6667 12.6667H3.33333V5.33334H12.6667V12.6667ZM6.66667 9.33334H5.33334C4.96515 9.33334 4.66667 9.03487 4.66667 8.66668V7.33334C4.66667 6.96515 4.96515 6.66668 5.33334 6.66668H6.66667C7.03486 6.66668 7.33334 6.96515 7.33334 7.33334V8.66668C7.33334 9.03487 7.03486 9.33334 6.66667 9.33334Z" fill="#8798AD"/>
</svg>
