<svg width="32" height="32" viewBox="0 0 32 32" fill="none" xmlns="http://www.w3.org/2000/svg">
<path fill-rule="evenodd" clip-rule="evenodd" d="M14.5198 1.33325V4.35252C7.86775 5.08634 2.66797 10.6901 2.66797 17.4666C2.66797 24.7394 8.65505 30.6666 16.0013 30.6666C23.3476 30.6666 29.3346 24.7394 29.3346 17.4666C29.3346 10.6901 24.1349 5.08634 17.4828 4.35252V1.33325H14.5198ZM16.0014 7.1999C21.7463 7.1999 26.3718 11.7791 26.3718 17.4666C26.3718 23.1541 21.7463 27.7332 16.0014 27.7332C10.2564 27.7332 5.63102 23.1541 5.63102 17.4666C5.63102 11.7791 10.2564 7.1999 16.0014 7.1999ZM14.5189 18.0739V10.1333H17.4818V16.8593L21.4922 20.8296L19.3973 22.9036L14.5189 18.0739Z" fill="#8D52D9"/>
</svg>
