<svg width="20" height="20" viewBox="0 0 20 20" fill="none" xmlns="http://www.w3.org/2000/svg">
<path fill-rule="evenodd" clip-rule="evenodd" d="M16.25 2.5H17.0833C17.3135 2.5 17.5 2.68655 17.5 2.91667V6.975C17.5005 8.96634 16.709 10.8761 15.3 12.2833L12.2833 15.3C10.8761 16.709 8.96635 17.5005 6.97501 17.5H5.00001C4.53978 17.5 4.16668 17.1269 4.16668 16.6667V16.1917C4.16744 16.0458 4.24294 15.9105 4.36668 15.8333L6.43335 14.6333C6.90164 14.3523 7.33279 14.0135 7.71668 13.625L13.625 7.71667C14.0135 7.33278 14.3523 6.90163 14.6333 6.43333L15.6 4.8C15.7473 4.54656 15.8276 4.25976 15.8333 3.96667V2.91667C15.8333 2.68655 16.0199 2.5 16.25 2.5ZM3.01668 11.8833L5.60834 12.95C5.75522 13.0137 5.90544 13.0693 6.05834 13.1167C6.27779 12.962 6.48154 12.7861 6.66668 12.5917L12.3083 6.975L5.91668 9.61667C5.31182 9.86822 4.66342 9.99847 4.00834 10H2.91668C2.68656 10 2.50001 10.1865 2.50001 10.4167V11.1083C2.49831 11.4478 2.70268 11.7543 3.01668 11.8833Z" fill="#8D52D9"/>
</svg>
