<svg width="20" height="20" viewBox="0 0 20 20" fill="none" xmlns="http://www.w3.org/2000/svg">
<path fill-rule="evenodd" clip-rule="evenodd" d="M17.5001 3.33334H13.2417C12.0814 3.35183 10.9409 3.63696 9.90842 4.16667L9.39175 4.425C8.57161 4.8217 7.66926 5.01873 6.75842 5H2.50008C2.03984 5 1.66675 5.3731 1.66675 5.83334V15.8333C1.66675 16.2936 2.03984 16.6667 2.50008 16.6667H6.75842C7.91544 16.6611 9.05578 16.3903 10.0917 15.875L10.6084 15.6167C11.425 15.2056 12.3275 14.9942 13.2417 15H17.5001C17.9603 15 18.3334 14.6269 18.3334 14.1667V4.16667C18.3334 3.70643 17.9603 3.33334 17.5001 3.33334ZM16.6667 10.8333C15.286 10.8333 14.1667 11.9526 14.1667 13.3333H13.2417C12.0848 13.3398 10.9447 13.6106 9.90841 14.125L9.39175 14.3833C8.57377 14.7906 7.67217 15.0017 6.75841 15H5.83341C5.83341 13.6193 4.71413 12.5 3.33341 12.5V9.16667C4.71413 9.16667 5.83341 8.04738 5.83341 6.66667H6.75841C7.91861 6.64728 9.05892 6.36221 10.0917 5.83333L10.6084 5.575C11.4299 5.18214 12.3313 4.9853 13.2417 5H14.1667C14.1667 6.38071 15.286 7.5 16.6667 7.5V10.8333ZM10.0001 12.5C11.3808 12.5 12.5001 11.3807 12.5001 10C12.5001 8.61929 11.3808 7.5 10.0001 7.5C8.61937 7.5 7.50008 8.61929 7.50008 10C7.50008 11.3807 8.61937 12.5 10.0001 12.5Z" fill="#8D52D9"/>
</svg>
