<svg width="20" height="20" viewBox="0 0 20 20" fill="none" xmlns="http://www.w3.org/2000/svg">
<path d="M10.4167 0.833336C10.3316 0.833346 10.2486 0.859397 10.1787 0.907988C10.1089 0.956578 10.0556 1.02538 10.026 1.10515L5.12858 10.3906C5.04494 10.5232 5.00038 10.6766 5 10.8333C5 11.0543 5.0878 11.2663 5.24408 11.4226C5.40036 11.5789 5.61232 11.6667 5.83333 11.6667H10V18.75C10 18.8605 10.0439 18.9665 10.122 19.0446C10.2002 19.1228 10.3062 19.1667 10.4167 19.1667C10.4934 19.1668 10.5686 19.1457 10.634 19.1058C10.6995 19.0658 10.7527 19.0086 10.7878 18.9404L15.721 9.58496L15.7194 9.58333C15.7933 9.45687 15.8326 9.31316 15.8333 9.16667C15.8333 8.94565 15.7455 8.73369 15.5893 8.57741C15.433 8.42113 15.221 8.33333 15 8.33333H10.8333V1.25C10.8333 1.1395 10.7894 1.03351 10.7113 0.955375C10.6332 0.877235 10.5272 0.833336 10.4167 0.833336Z" fill="#8D52D9"/>
</svg>
