<?xml version="1.0" encoding="UTF-8"?>
<svg width="22px" height="21px" viewBox="0 0 22 21" version="1.1" xmlns="http://www.w3.org/2000/svg" xmlns:xlink="http://www.w3.org/1999/xlink">
    <title>dislike</title>
    <g id="Page-1" stroke="none" stroke-width="1" fill="none" fill-rule="evenodd" opacity="0.3">
        <g id="dislike" transform="translate(-0.000002, 0.638277)" fill="#7C8087" fill-rule="nonzero">
            <path d="M8.4000021,13.0000231 L2.00000104,13.0000231 C1.4695721,13.0000231 0.960862095,12.7893231 0.585792095,12.4142231 C0.210722095,12.0391231 1.04341109e-06,11.5304231 1.04341109e-06,11.0000231 L1.04341109e-06,8.89600309 C-0.000265904962,8.63464309 0.050692095,8.37576309 0.150002095,8.13400309 L3.2450021,0.61900309 C3.3205021,0.43578309 3.4487421,0.27912709 3.6134321,0.16891909 C3.7781221,0.0587100899 3.9718421,0 4.1700021,0 L21.000001,0 C21.2652021,0 21.5196021,0.10535809 21.7071021,0.29289409 C21.8946021,0.48043309 22.000001,0.73478309 22.000001,1 L22.000001,11.0000231 C22.000001,11.2652231 21.8946021,11.5196231 21.7071021,11.7071231 C21.5196021,11.8946231 21.2652021,12.0000231 21.000001,12.0000231 L17.5180021,12.0000231 C17.3579021,11.9999231 17.2001021,12.0383231 17.0580021,12.1119231 C16.9158021,12.1856231 16.7934021,12.2922231 16.7010021,12.4230231 L11.2480021,20.1500231 C11.1791021,20.2477231 11.0774021,20.3174231 10.9615021,20.3466231 C10.8455021,20.3758231 10.7230021,20.3624231 10.6160021,20.3090231 L8.8020021,19.4020231 C8.2915021,19.1468231 7.8836721,18.7247231 7.6462721,18.2057231 C7.4088721,17.6867231 7.3562021,17.1021231 7.4970021,16.5490231 L8.4000021,13.0000231 Z M16.0000021,10.4120231 L16.0000021,2.00000309 L4.8400021,2.00000309 L2.0000021,8.89600309 L2.0000021,11.0000231 L8.4000021,11.0000231 C8.7046021,11.0000231 9.0052021,11.0696231 9.2788021,11.2035231 C9.5524021,11.3374231 9.7918021,11.5320231 9.9787021,11.7725231 C10.1657021,12.0130231 10.2952021,12.2930231 10.3575021,12.5912231 C10.4197021,12.8893231 10.4131021,13.1978231 10.3380021,13.4930231 L9.4350021,17.0410231 C9.4067021,17.1517231 9.4172021,17.2687231 9.4647021,17.3726231 C9.5122021,17.4764231 9.5938021,17.5609231 9.6960021,17.6120231 L10.3570021,17.9420231 L15.0670021,11.2700231 C15.3170021,10.9160231 15.6370021,10.6260231 16.0000021,10.4120231 Z M18.0000021,10.0000231 L20.0000021,10.0000231 L20.0000021,2.00000309 L18.0000021,2.00000309 L18.0000021,10.0000231 Z" id="Shape"></path>
        </g>
    </g>
</svg>