<svg width="16" height="16" viewBox="0 0 16 16" fill="none" xmlns="http://www.w3.org/2000/svg">
<path d="M8.47993 10.5198C8.38626 10.6136 8.25917 10.6663 8.1266 10.6665L7.87327 10.6665C7.74099 10.6649 7.61442 10.6124 7.51993 10.5198L4.09993 7.09312C4.03683 7.03053 4.00134 6.94533 4.00134 6.85645C4.00134 6.76757 4.03683 6.68237 4.09993 6.61978L4.57327 6.14645C4.63471 6.08374 4.71881 6.0484 4.8066 6.0484C4.89439 6.0484 4.97849 6.08374 5.03993 6.14645L7.99994 9.11312L10.9599 6.14645C11.0225 6.08335 11.1077 6.04785 11.1966 6.04785C11.2855 6.04785 11.3707 6.08335 11.4333 6.14645L11.8999 6.61978C11.963 6.68237 11.9985 6.76757 11.9985 6.85645C11.9985 6.94533 11.963 7.03053 11.8999 7.09312L8.47993 10.5198Z" fill="#828282"/>
</svg>
