<svg width="20" height="20" viewBox="0 0 20 20" fill="none" xmlns="http://www.w3.org/2000/svg">
<path fill-rule="evenodd" clip-rule="evenodd" d="M9.07416 0.833252V2.7203C4.91661 3.17893 1.66675 6.68126 1.66675 10.9166C1.66675 15.4621 5.40868 19.1666 10.0001 19.1666C14.5915 19.1666 18.3334 15.4621 18.3334 10.9166C18.3334 6.68126 15.0836 3.17893 10.926 2.7203V0.833252H9.07416ZM10.0001 4.49991C13.5907 4.49991 16.4816 7.3619 16.4816 10.9166C16.4816 14.4713 13.5907 17.3332 10.0001 17.3332C6.40949 17.3332 3.5186 14.4713 3.5186 10.9166C3.5186 7.3619 6.40949 4.49991 10.0001 4.49991ZM9.07416 11.2961V6.33326H10.926V10.537L13.4325 13.0185L12.1232 14.3147L9.07416 11.2961Z" fill="white"/>
</svg>
