<svg width="20" height="20" viewBox="0 0 20 20" fill="none" xmlns="http://www.w3.org/2000/svg">
<path fill-rule="evenodd" clip-rule="evenodd" d="M9.07403 0.833374V2.72042C4.91649 3.17905 1.66663 6.68138 1.66663 10.9167C1.66663 15.4622 5.40855 19.1667 9.99996 19.1667C14.5914 19.1667 18.3333 15.4622 18.3333 10.9167C18.3333 6.68138 15.0834 3.17905 10.9259 2.72042V0.833374H9.07403ZM9.99996 4.50004C13.5905 4.50004 16.4814 7.36202 16.4814 10.9167C16.4814 14.4714 13.5905 17.3334 9.99996 17.3334C6.40937 17.3334 3.51848 14.4714 3.51848 10.9167C3.51848 7.36202 6.40937 4.50004 9.99996 4.50004ZM9.07403 11.2963V6.33338H10.9259V10.5372L13.4324 13.0186L12.1231 14.3148L9.07403 11.2963Z" fill="#8D52D9"/>
</svg>
