<svg width="21" height="20" viewBox="0 0 21 20" fill="none" xmlns="http://www.w3.org/2000/svg">
<path fill-rule="evenodd" clip-rule="evenodd" d="M18 5.00002C18 4.07955 17.2538 3.33335 16.3333 3.33335H15.5V2.08335C15.5 1.85324 15.3135 1.66669 15.0833 1.66669H14.25C14.0199 1.66669 13.8333 1.85324 13.8333 2.08335V3.33335H7.16667V2.08335C7.16667 1.85324 6.98012 1.66669 6.75 1.66669H5.91667C5.68655 1.66669 5.5 1.85324 5.5 2.08335V3.33335H4.66667C3.74619 3.33335 3 4.07955 3 5.00002V15.8334C3 16.7538 3.74619 17.5 4.66667 17.5H16.3333C17.2538 17.5 18 16.7538 18 15.8334V5.00002ZM16.3333 15.8334H4.66666V6.66669H16.3333V15.8334ZM8.83333 11.6667H7.16667C6.70643 11.6667 6.33334 11.2936 6.33334 10.8334V9.16669C6.33334 8.70645 6.70643 8.33335 7.16667 8.33335H8.83333C9.29357 8.33335 9.66667 8.70645 9.66667 9.16669V10.8334C9.66667 11.2936 9.29357 11.6667 8.83333 11.6667Z" fill="white"/>
</svg>
