<?xml version="1.0" encoding="UTF-8"?>
<svg width="56px" height="56px" viewBox="0 0 56 56" version="1.1" xmlns="http://www.w3.org/2000/svg" xmlns:xlink="http://www.w3.org/1999/xlink">
    <!-- Generator: Sketch 64 (93537) - https://sketch.com -->
    <title>Group 38</title>
    <desc>Created with Sketch.</desc>
    <g id="Page-1" stroke="none" stroke-width="1" fill="none" fill-rule="evenodd">
        <g id="Group-38" fill="#8D52D9" fill-rule="nonzero">
            <g id="Group" opacity="0.05">
                <circle id="Oval" cx="28" cy="28" r="28"></circle>
            </g>
            <path d="M36.3875,24.9735 L36.3513,24.9245 L36.3442,24.9102 L33.0578,20.0315 L29.7713,24.9102 L29.7645,24.9239 L29.7279,24.9735 C29.2006,25.6877 28.9219,26.5362 28.9219,27.4273 C28.9219,29.7079 30.7772,31.5632 33.0577,31.5632 C35.3382,31.5632 37.1935,29.7079 37.1935,27.4273 C37.1936,26.5362 36.9149,25.6876 36.3875,24.9735 Z" id="Path"></path>
            <path d="M33.0575,32.9724 C29.9999,32.9724 27.5125,30.4849 27.5125,27.4274 C27.5125,26.2388 27.8828,25.1063 28.5834,24.1511 L30.7438,20.9439 L27.4133,16 L20.4742,26.3009 C19.3832,27.7857 18.8066,29.546 18.8066,31.3933 C18.8066,36.139 22.6676,40 27.4134,40 C31.9101,40 35.6118,36.5335 35.988,32.1326 C35.1372,32.6645 34.1327,32.9724 33.0575,32.9724 Z" id="Path"></path>
        </g>
    </g>
</svg>