<svg width="20" height="20" viewBox="0 0 20 20" fill="none" xmlns="http://www.w3.org/2000/svg">
<path fill-rule="evenodd" clip-rule="evenodd" d="M17.0833 5.83329H2.91667C2.68655 5.83329 2.5 5.64674 2.5 5.41663V4.58329C2.5 4.35317 2.68655 4.16663 2.91667 4.16663H17.0833C17.3135 4.16663 17.5 4.35317 17.5 4.58329V5.41663C17.5 5.64674 17.3135 5.83329 17.0833 5.83329ZM15 10.4166V9.58329C15 9.35318 14.8135 9.16663 14.5833 9.16663H5.41667C5.18655 9.16663 5 9.35318 5 9.58329V10.4166C5 10.6467 5.18655 10.8333 5.41667 10.8333H14.5833C14.8135 10.8333 15 10.6467 15 10.4166ZM12.5 14.5833V15.4166C12.5 15.6467 12.3135 15.8333 12.0833 15.8333H7.91667C7.68655 15.8333 7.5 15.6467 7.5 15.4166V14.5833C7.5 14.3532 7.68655 14.1666 7.91667 14.1666H12.0833C12.3135 14.1666 12.5 14.3532 12.5 14.5833Z" fill="#7C8087"/>
</svg>
