<svg width="14" height="14" viewBox="0 0 14 14" fill="none" xmlns="http://www.w3.org/2000/svg">
<path d="M5.5 8.3725C5.50032 7.97272 5.34103 7.58935 5.0575 7.3075L0.692501 2.9425C0.408971 2.66065 0.249684 2.27728 0.25 1.8775V1C0.25 0.585786 0.585787 0.25 1 0.25H13C13.4142 0.25 13.75 0.585786 13.75 1V1.8775C13.7503 2.27728 13.591 2.66065 13.3075 2.9425L8.9425 7.3075C8.65897 7.58935 8.49968 7.97272 8.5 8.3725V11.125C8.5 11.5971 8.27771 12.0417 7.9 12.325L6.1 13.675C5.98637 13.7602 5.83434 13.7739 5.7073 13.7104C5.58025 13.6469 5.5 13.517 5.5 13.375V8.3725Z" fill="white"/>
</svg>
