<svg width="40" height="40" viewBox="0 0 40 40" fill="none" xmlns="http://www.w3.org/2000/svg">
<path d="M28.9583 20.5208C28.9583 20.1145 28.8958 19.677 28.8333 19.2083H21.4583V21.8958H25.8645C25.7708 22.3645 25.5833 22.8333 25.3333 23.2708C24.9583 23.8333 24.4895 24.302 23.927 24.6145C23.2083 25.052 22.3958 25.2395 21.4583 25.2395C20.5833 25.2395 19.7708 25.0208 19.052 24.5833C18.302 24.1458 17.7395 23.552 17.302 22.802C16.8645 22.052 16.6458 21.2395 16.6458 20.3333C16.6458 19.302 16.927 18.3645 17.4895 17.552C17.9895 16.802 18.677 16.2395 19.552 15.8645C20.3958 15.4895 21.2708 15.3645 22.1458 15.4895C23.0833 15.6145 23.8645 16.0208 24.552 16.6458L26.6458 14.6145C25.2083 13.2708 23.4583 12.5833 21.4583 12.5833C20.052 12.5833 18.7708 12.9583 17.5833 13.6458C16.3958 14.3333 15.427 15.2708 14.7395 16.4583C14.052 17.6458 13.7083 18.9583 13.7083 20.3333C13.7083 21.7395 14.052 23.0208 14.7395 24.2083C15.427 25.3958 16.3958 26.3645 17.5833 27.052C18.7708 27.7395 20.052 28.0833 21.4583 28.0833C22.927 28.0833 24.2395 27.7708 25.3645 27.1145C26.4895 26.4895 27.3958 25.5833 28.0208 24.427C28.6458 23.302 28.9583 21.9895 28.9583 20.5208Z" fill="white"/>
</svg>
