<?xml version="1.0" encoding="UTF-8"?>
<svg width="56px" height="56px" viewBox="0 0 56 56" version="1.1" xmlns="http://www.w3.org/2000/svg" xmlns:xlink="http://www.w3.org/1999/xlink">
    <!-- Generator: Sketch 64 (93537) - https://sketch.com -->
    <title>Group 34</title>
    <desc>Created with Sketch.</desc>
    <g id="Page-1" stroke="none" stroke-width="1" fill="none" fill-rule="evenodd">
        <g id="Group-34" fill="#8D52D9">
            <g id="Group" opacity="0.05" fill-rule="nonzero">
                <circle id="Oval" cx="28" cy="28" r="28"></circle>
            </g>
            <path d="M31,26 L36,26 C37.1046,26 38,26.8954 38,28 L38,30.84 C37.9985,31.6038 37.8526,32.3604 37.57,33.07 L36.5,35.74 C36.1981,36.4981 35.466,36.9967 34.65,37 L28.41,37 C27.5059,36.9993 26.639,36.6396 26,36 C25.3529,35.3786 24.487,35.0373 23.59,35.05 L23,35.05 L23,27.05 L23.89,27.05 C24.581,27.0514 25.2238,26.696 25.59,26.11 L26.81,24.11 C27.2606,23.3913 27.9251,22.8317 28.71,22.51 L29.14,22.34 C29.6835,22.1214 30.1038,21.6755 30.29,21.12 L30.89,19.34 C30.9582,19.1381 31.1469,19.0016 31.36,19 L31.5,19 C32.3284,19 33,19.6716 33,20.5 L33,20.89 C33.0196,21.5838 32.8649,22.2715 32.55,22.89 L31,26 Z M20.5,36 C20.7761,36 21,35.7761 21,35.5 L21,26.5 C21,26.2239 20.7761,26 20.5,26 L18.5,26 C18.2239,26 18,26.2239 18,26.5 L18,35.5 C18,35.7761 18.2239,36 18.5,36 L20.5,36 Z" id="Shape"></path>
        </g>
    </g>
</svg>