<?xml version="1.0" encoding="UTF-8"?>
<svg width="56px" height="56px" viewBox="0 0 56 56" version="1.1" xmlns="http://www.w3.org/2000/svg" xmlns:xlink="http://www.w3.org/1999/xlink">
    <!-- Generator: Sketch 64 (93537) - https://sketch.com -->
    <title>Group 35</title>
    <desc>Created with Sketch.</desc>
    <g id="Page-1" stroke="none" stroke-width="1" fill="none" fill-rule="evenodd">
        <g id="Group-35" fill="#8D52D9" fill-rule="nonzero">
            <g id="Group" opacity="0.05">
                <circle id="Oval" cx="28" cy="28" r="28"></circle>
            </g>
            <path d="M33,18 C32.4696,18 31.9609,18.2107 31.5858,18.5858 C31.2107,18.9609 31,19.4696 31,20 C31,20.5304 31.2107,21.0391 31.5858,21.4142 C31.9609,21.7893 32.4696,22 33,22 C33.5304,22 34.0391,21.7893 34.4142,21.4142 C34.7893,21.0391 35,20.5304 35,20 C35,19.4696 34.7893,18.9609 34.4142,18.5858 C34.0391,18.2107 33.5304,18 33,18 Z M26.6484,20.9277 L22.416,23.1113 L23.334,24.8887 L26.8516,23.0723 L28.0703,23.4316 L26.2676,27.0039 C26.0928,27.3068 26.0006,27.6503 26,28 C26.0005,28.2963 26.0668,28.5888 26.1941,28.8563 C26.3215,29.1238 26.5067,29.3597 26.7363,29.5469 C26.7396,29.5495 26.7428,29.5521 26.7461,29.5547 L29.8477,32.4453 L29.8574,32.4551 L28.0625,37.3027 L29.9375,37.998 L32.1426,32.0449 L32.1367,32.0371 L29.9668,28.5352 L31.2871,25.8945 L32.7227,28 L37,28 L37,26 L33.7773,26 L31.7305,22.9961 L31.7246,22.9922 C31.5874,22.7578 31.404,22.5538 31.1854,22.3926 C30.9668,22.2314 30.7176,22.1164 30.4531,22.0547 L30.4492,22.0508 L26.6484,20.9277 Z M25.4414,30.3984 L24.8789,31 L20,31 L20,33 L25.7441,33 L26.9004,31.7676 L25.4414,30.3984 Z" id="Shape"></path>
        </g>
    </g>
</svg>