<svg width="32" height="32" viewBox="0 0 32 32" fill="none" xmlns="http://www.w3.org/2000/svg">
<path fill-rule="evenodd" clip-rule="evenodd" d="M2.66797 16.0001C2.66797 8.63628 8.63751 2.66675 16.0013 2.66675C19.5375 2.66675 22.9289 4.07151 25.4294 6.57199C27.9299 9.07248 29.3346 12.4639 29.3346 16.0001C29.3346 23.3639 23.3651 29.3334 16.0013 29.3334C8.63751 29.3334 2.66797 23.3639 2.66797 16.0001ZM5.33464 16.0001C5.33464 21.8911 10.1103 26.6667 16.0013 26.6667C18.8303 26.6667 21.5434 25.5429 23.5438 23.5426C25.5442 21.5422 26.668 18.8291 26.668 16.0001C26.668 10.109 21.8923 5.33341 16.0013 5.33341C10.1103 5.33341 5.33464 10.109 5.33464 16.0001ZM17.3346 16.6667C17.3346 16.2986 17.0362 16.0001 16.668 16.0001H15.3346C14.9664 16.0001 14.668 16.2986 14.668 16.6667V20.6667C14.668 21.0349 14.9664 21.3334 15.3346 21.3334H16.668C17.0362 21.3334 17.3346 21.0349 17.3346 20.6667V16.6667ZM16.668 10.6667C17.0362 10.6667 17.3346 10.9652 17.3346 11.3334V12.6667C17.3346 13.0349 17.0362 13.3334 16.668 13.3334H15.3346C14.9664 13.3334 14.668 13.0349 14.668 12.6667V11.3334C14.668 10.9652 14.9664 10.6667 15.3346 10.6667H16.668Z" fill="#8D52D9"/>
</svg>
