<svg width="40" height="40" viewBox="0 0 40 40" fill="none" xmlns="http://www.w3.org/2000/svg">
<path d="M20.3333 16.7395C20.9583 16.7395 21.552 16.927 22.1145 17.2395C22.677 17.552 23.1145 17.9895 23.427 18.552C23.7395 19.1145 23.927 19.7083 23.927 20.3333C23.927 20.9895 23.7395 21.5833 23.427 22.1458C23.1145 22.7083 22.677 23.1458 22.1145 23.4583C21.552 23.7708 20.9583 23.927 20.3333 23.927C19.677 23.927 19.0833 23.7708 18.5208 23.4583C17.9583 23.1458 17.5208 22.7083 17.2083 22.1458C16.8958 21.5833 16.7395 20.9895 16.7395 20.3333C16.7395 19.7083 16.8958 19.1145 17.2083 18.552C17.5208 17.9895 17.9583 17.552 18.5208 17.2395C19.0833 16.927 19.677 16.7395 20.3333 16.7395ZM20.3333 22.677C20.9583 22.677 21.5208 22.4583 21.9895 21.9895C22.427 21.552 22.677 20.9895 22.677 20.3333C22.677 19.7083 22.427 19.1458 21.9895 18.677C21.5208 18.2395 20.9583 17.9895 20.3333 17.9895C19.677 17.9895 19.1145 18.2395 18.677 18.677C18.2083 19.1458 17.9895 19.7083 17.9895 20.3333C17.9895 20.9895 18.2083 21.552 18.677 21.9895C19.1145 22.4583 19.677 22.677 20.3333 22.677ZM24.927 16.5833C24.927 16.3645 24.8333 16.177 24.677 15.9895C24.4895 15.8333 24.302 15.7395 24.0833 15.7395C23.8333 15.7395 23.6458 15.8333 23.4895 15.9895C23.302 16.177 23.2395 16.3645 23.2395 16.5833C23.2395 16.8333 23.302 17.0208 23.4895 17.177C23.6458 17.3645 23.8333 17.427 24.0833 17.427C24.302 17.427 24.4895 17.3645 24.6458 17.177C24.802 17.0208 24.8958 16.8333 24.927 16.5833ZM27.302 17.427C27.302 18.0208 27.3333 18.9895 27.3333 20.3333C27.3333 21.7083 27.302 22.677 27.2708 23.2708C27.2395 23.8645 27.1458 24.3645 27.0208 24.802C26.8333 25.3333 26.5208 25.802 26.1458 26.177C25.7708 26.552 25.302 26.8333 24.802 27.0208C24.3645 27.177 23.8333 27.2708 23.2395 27.302C22.6458 27.3333 21.677 27.3333 20.3333 27.3333C18.9583 27.3333 17.9895 27.3333 17.3958 27.302C16.802 27.2708 16.302 27.177 15.8645 26.9895C15.3333 26.8333 14.8645 26.552 14.4895 26.177C14.1145 25.802 13.8333 25.3333 13.6458 24.802C13.4895 24.3645 13.3958 23.8645 13.3645 23.2708C13.3333 22.677 13.3333 21.7083 13.3333 20.3333C13.3333 18.9895 13.3333 18.0208 13.3645 17.427C13.3958 16.8333 13.4895 16.302 13.6458 15.8645C13.8333 15.3645 14.1145 14.8958 14.4895 14.5208C14.8645 14.1458 15.3333 13.8333 15.8645 13.6458C16.302 13.5208 16.802 13.427 17.3958 13.3958C17.9895 13.3645 18.9583 13.3333 20.3333 13.3333C21.677 13.3333 22.6458 13.3645 23.2395 13.3958C23.8333 13.427 24.3645 13.5208 24.802 13.6458C25.302 13.8333 25.7708 14.1458 26.1458 14.5208C26.5208 14.8958 26.8333 15.3645 27.0208 15.8645C27.1458 16.302 27.2395 16.8333 27.302 17.427ZM25.802 24.4583C25.927 24.1145 25.9895 23.552 26.052 22.7708C26.052 22.3333 26.0833 21.677 26.0833 20.8333V19.8333C26.0833 18.9895 26.052 18.3333 26.052 17.8958C25.9895 17.1145 25.927 16.552 25.802 16.2083C25.552 15.5833 25.0833 15.1145 24.4583 14.8645C24.1145 14.7395 23.552 14.677 22.7708 14.6145C22.302 14.6145 21.6458 14.5833 20.8333 14.5833H19.8333C18.9895 14.5833 18.3333 14.6145 17.8958 14.6145C17.1145 14.677 16.552 14.7395 16.2083 14.8645C15.552 15.1145 15.1145 15.5833 14.8645 16.2083C14.7395 16.552 14.6458 17.1145 14.6145 17.8958C14.5833 18.3645 14.5833 19.0208 14.5833 19.8333V20.8333C14.5833 21.677 14.5833 22.3333 14.6145 22.7708C14.6458 23.552 14.7395 24.1145 14.8645 24.4583C15.1145 25.1145 15.5833 25.552 16.2083 25.802C16.552 25.927 17.1145 26.0208 17.8958 26.052C18.3333 26.0833 18.9895 26.0833 19.8333 26.0833H20.8333C21.677 26.0833 22.3333 26.0833 22.7708 26.052C23.552 26.0208 24.1145 25.927 24.4583 25.802C25.0833 25.552 25.552 25.0833 25.802 24.4583Z" fill="white"/>
</svg>
