<?xml version="1.0" encoding="UTF-8"?>
<svg width="22px" height="21px" viewBox="0 0 22 21" version="1.1" xmlns="http://www.w3.org/2000/svg" xmlns:xlink="http://www.w3.org/1999/xlink">
    <title>like</title>
    <g id="Page-1" stroke="none" stroke-width="1" fill="none" fill-rule="evenodd">
        <g id="like" transform="translate(0.000000, 0.638306)" fill="#8D52D9" fill-rule="nonzero">
            <path d="M13.6,7.36172423 L20,7.36172423 C20.5304,7.36172423 21.0391,7.57243423 21.4142,7.94750423 C21.7893,8.32258423 22,8.83128423 22,9.36169423 L22,11.4656942 C22.0003,11.7270942 21.9493,11.9859942 21.85,12.2276942 L18.755,19.7426942 C18.6795,19.9258942 18.5513,20.0825942 18.3866,20.1927942 C18.2219,20.3029942 18.0282,20.3616944 17.83,20.3616944 L1,20.3616944 C0.73478,20.3616944 0.48043,20.2563942 0.29289,20.0687942 C0.10536,19.8812942 0,19.6268942 0,19.3616942 L0,9.36169423 C0,9.09650423 0.10536,8.84215423 0.29289,8.65461423 C0.48043,8.46707423 0.73478,8.36172423 1,8.36172423 L4.482,8.36172423 C4.6421,8.36176423 4.79986,8.32336423 4.94203,8.24975423 C5.0842,8.17614423 5.20662,8.06947423 5.299,7.93872423 L10.752,0.21172023 C10.8209,0.11403323 10.9226,0.0442802299 11.0385,0.0151102299 C11.1545,-0.0140597701 11.277,-0.000716770085 11.384,0.0527202299 L13.198,0.95972423 C13.7085,1.21488423 14.1163,1.63703423 14.3537,2.15603423 C14.5911,2.67503423 14.6438,3.25964423 14.503,3.81272423 L13.6,7.36172423 Z M6,9.94969423 L6,18.3616942 L17.16,18.3616942 L20,11.4656942 L20,9.36169423 L13.6,9.36169423 C13.2954,9.36167423 12.9948,9.29205423 12.7212,9.15817423 C12.4476,9.02429423 12.2082,8.82969423 12.0213,8.58920423 C11.8343,8.34872423 11.7048,8.06871423 11.6425,7.77054423 C11.5803,7.47237423 11.5869,7.16392423 11.662,6.86872423 L12.565,3.32072423 C12.5933,3.21004423 12.5828,3.09303423 12.5353,2.98914423 C12.4878,2.88526423 12.4062,2.80076423 12.304,2.74972423 L11.643,2.41972423 L6.933,9.09172423 C6.683,9.44569423 6.363,9.73569423 6,9.94969423 Z M4,10.3616942 L2,10.3616942 L2,18.3616942 L4,18.3616942 L4,10.3616942 Z" id="Shape"></path>
        </g>
    </g>
</svg>