<svg width="40" height="40" viewBox="0 0 40 40" fill="none" xmlns="http://www.w3.org/2000/svg">
<path d="M26.3333 13.3333C26.5833 13.3333 26.8333 13.4583 27.0208 13.6458C27.2083 13.8333 27.3333 14.0833 27.3333 14.3333V26.3333C27.3333 26.6145 27.2083 26.8645 27.0208 27.052C26.8333 27.2395 26.5833 27.3333 26.3333 27.3333H14.3333C14.052 27.3333 13.802 27.2395 13.6145 27.052C13.427 26.8645 13.3333 26.6145 13.3333 26.3333V14.3333C13.3333 14.0833 13.427 13.8333 13.6145 13.6458C13.802 13.4583 14.052 13.3333 14.3333 13.3333H26.3333ZM17.5833 25.3333V18.6458H15.4895V25.3333H17.5833ZM16.5208 17.7395C16.8333 17.7395 17.1145 17.6458 17.3645 17.3958C17.6145 17.1458 17.7395 16.8645 17.7395 16.552C17.7395 16.2395 17.6145 15.9583 17.3645 15.7083C17.1145 15.4583 16.8333 15.3333 16.5208 15.3333C16.177 15.3333 15.8958 15.4583 15.677 15.7083C15.427 15.9583 15.3333 16.2395 15.3333 16.552C15.3333 16.8645 15.427 17.1458 15.677 17.3958C15.8958 17.6458 16.177 17.7395 16.5208 17.7395ZM25.3333 25.3333V21.677C25.3333 20.6458 25.177 19.8958 24.8958 19.3958C24.4895 18.802 23.802 18.4895 22.8645 18.4895C22.3645 18.4895 21.9583 18.6145 21.5833 18.8333C21.2708 19.0208 21.0208 19.2708 20.8958 19.552H20.8645V18.6458H18.8645V25.3333H20.927V22.0208C20.927 21.5208 20.9895 21.1145 21.1458 20.8333C21.3333 20.4895 21.677 20.302 22.177 20.302C22.6458 20.302 22.9583 20.5208 23.1145 20.8958C23.2083 21.1458 23.2708 21.552 23.2708 22.0833V25.3333H25.3333Z" fill="white"/>
</svg>
