<svg width="24" height="24" viewBox="0 0 24 24" fill="none" xmlns="http://www.w3.org/2000/svg">
<circle cx="12" cy="12" r="11.5" stroke="#000000" fill="#000000"/>
<path fill-rule="evenodd" clip-rule="evenodd" d="M15.075 10.65V9.675C15.075 8.05957 13.7654 6.75 12.15 6.75C10.5346 6.75 9.225 8.05957 9.225 9.675V10.65C8.68652 10.65 8.25 11.0865 8.25 11.625V15.525C8.25 16.0635 8.68652 16.5 9.225 16.5H15.075C15.6135 16.5 16.05 16.0635 16.05 15.525V11.625C16.05 11.0865 15.6135 10.65 15.075 10.65ZM10.2 9.67493C10.2 8.59797 11.073 7.72493 12.15 7.72493C13.227 7.72493 14.1 8.59797 14.1 9.67493V10.6499H10.2V9.67493ZM12.6375 14.5499C12.9067 14.5499 13.125 14.3317 13.125 14.0624V13.0874C13.125 12.8182 12.9067 12.5999 12.6375 12.5999H11.6625C11.3933 12.5999 11.175 12.8182 11.175 13.0874V14.0624C11.175 14.3317 11.3933 14.5499 11.6625 14.5499H12.6375Z" fill="#ffffff"/>
</svg>
