<svg width="14" height="17" viewBox="0 0 14 17" fill="none" xmlns="http://www.w3.org/2000/svg">
<path fill-rule="evenodd" clip-rule="evenodd" d="M12.125 6.75V5.125C12.125 2.43261 9.94239 0.25 7.25 0.25C4.55761 0.25 2.375 2.43261 2.375 5.125V6.75C1.47754 6.75 0.75 7.47754 0.75 8.375V14.875C0.75 15.7725 1.47754 16.5 2.375 16.5H12.125C13.0225 16.5 13.75 15.7725 13.75 14.875V8.375C13.75 7.47754 13.0225 6.75 12.125 6.75ZM3.99998 5.12489C3.99998 3.32997 5.45506 1.87489 7.24998 1.87489C9.04491 1.87489 10.5 3.32997 10.5 5.12489V6.74989H3.99998V5.12489ZM8.06252 13.2499C8.51125 13.2499 8.87502 12.8861 8.87502 12.4374V10.8124C8.87502 10.3637 8.51125 9.99989 8.06252 9.99989H6.43752C5.98879 9.99989 5.62502 10.3637 5.62502 10.8124V12.4374C5.62502 12.8861 5.98879 13.2499 6.43752 13.2499H8.06252Z" fill="#1A191C"/>
</svg>
