<svg width="20" height="20" viewBox="0 0 20 20" fill="none" xmlns="http://www.w3.org/2000/svg">
<path fill-rule="evenodd" clip-rule="evenodd" d="M17.5001 3.33325H13.2417C12.0814 3.35175 10.9409 3.63687 9.90842 4.16659L9.39175 4.42492C8.57161 4.82161 7.66926 5.01865 6.75842 4.99992H2.50008C2.03984 4.99992 1.66675 5.37301 1.66675 5.83325V15.8333C1.66675 16.2935 2.03984 16.6666 2.50008 16.6666H6.75842C7.91544 16.661 9.05578 16.3902 10.0917 15.8749L10.6084 15.6166C11.425 15.2055 12.3275 14.9941 13.2417 14.9999H17.5001C17.9603 14.9999 18.3334 14.6268 18.3334 14.1666V4.16659C18.3334 3.70635 17.9603 3.33325 17.5001 3.33325ZM16.6667 10.8333C15.286 10.8333 14.1667 11.9525 14.1667 13.3333H13.2417C12.0848 13.3397 10.9447 13.6105 9.90841 14.1249L9.39175 14.3833C8.57377 14.7905 7.67217 15.0016 6.75841 14.9999H5.83341C5.83341 13.6192 4.71413 12.4999 3.33341 12.4999V9.16658C4.71413 9.16658 5.83341 8.0473 5.83341 6.66658H6.75841C7.91861 6.6472 9.05892 6.36212 10.0917 5.83325L10.6084 5.57492C11.4299 5.18205 12.3313 4.98522 13.2417 4.99992H14.1667C14.1667 6.38063 15.286 7.49992 16.6667 7.49992V10.8333ZM10.0001 12.4999C11.3808 12.4999 12.5001 11.3806 12.5001 9.99992C12.5001 8.61921 11.3808 7.49992 10.0001 7.49992C8.61937 7.49992 7.50008 8.61921 7.50008 9.99992C7.50008 11.3806 8.61937 12.4999 10.0001 12.4999Z" fill="#27AE60"/>
</svg>
