<svg width="6" height="10" viewBox="0 0 6 10" fill="none" xmlns="http://www.w3.org/2000/svg">
<path d="M5.83464 4.45989C5.94016 4.56528 5.99951 4.70825 5.99964 4.85739L5.99964 5.14239C5.99791 5.2912 5.9388 5.4336 5.83464 5.53989L1.97964 9.38739C1.90922 9.45838 1.81338 9.49831 1.71339 9.49831C1.6134 9.49831 1.51755 9.45838 1.44714 9.38739L0.914637 8.85489C0.844089 8.78577 0.804333 8.69116 0.804333 8.59239C0.804333 8.49362 0.844089 8.39901 0.914637 8.32989L4.25214 4.99989L0.914636 1.66989C0.843643 1.59948 0.803711 1.50363 0.803711 1.40364C0.803711 1.30365 0.843643 1.2078 0.914635 1.13739L1.44714 0.612389C1.51755 0.541397 1.6134 0.501465 1.71339 0.501465C1.81337 0.501465 1.90922 0.541397 1.97964 0.612389L5.83464 4.45989Z" fill="#7C8087"/>
</svg>
