<?xml version="1.0" encoding="UTF-8"?>
<svg width="56px" height="56px" viewBox="0 0 56 56" version="1.1" xmlns="http://www.w3.org/2000/svg" xmlns:xlink="http://www.w3.org/1999/xlink">
    <!-- Generator: Sketch 64 (93537) - https://sketch.com -->
    <title>order</title>
    <desc>Created with Sketch.</desc>
    <g id="Page-1" stroke="none" stroke-width="1" fill="none" fill-rule="evenodd">
        <g id="order" fill="#8D52D9" fill-rule="nonzero">
            <g id="Group" opacity="0.05">
                <circle id="Oval" cx="28" cy="28" r="28"></circle>
            </g>
            <path d="M17,21 L17,34 L19,34 C19,35.657 20.343,37 22,37 C23.657,37 25,35.657 25,34 L31,34 C31,35.657 32.343,37 34,37 C35.657,37 37,35.657 37,34 L39,34 L39,29 L36.5527,24.1055 C36.2137,23.4275 35.5217,23 34.7637,23 L32,23 L32,21 L17,21 Z M19,23 L30,23 L30,32 L24.2207,32 C23.6716,31.3907 22.8849,31 22,31 C21.1151,31 20.3284,31.3907 19.7793,32 L19,32 L19,23 Z M26.543,24.541 L24,27.0859 L22.5078,25.5938 L21.0938,27.0078 L24,29.9141 L27.959,25.957 L26.543,24.541 Z M32,25 L34.7637,25 L37,29.4727 L37,32 L36.2207,32 C35.6716,31.3907 34.8849,31 34,31 C33.2279,31 32.5316,31.3002 32,31.7793 L32,25 Z M22,32.75 C22.689,32.75 23.25,33.311 23.25,34 C23.25,34.689 22.689,35.25 22,35.25 C21.311,35.25 20.75,34.689 20.75,34 C20.75,33.311 21.311,32.75 22,32.75 Z M34,32.75 C34.689,32.75 35.25,33.311 35.25,34 C35.25,34.689 34.689,35.25 34,35.25 C33.311,35.25 32.75,34.689 32.75,34 C32.75,33.311 33.311,32.75 34,32.75 Z" id="Shape"></path>
        </g>
    </g>
</svg>