<svg width="18" height="18" viewBox="0 0 18 18" fill="none" xmlns="http://www.w3.org/2000/svg">
<path fill-rule="evenodd" clip-rule="evenodd" d="M11.25 3H14.625C14.8321 3 15 3.16789 15 3.375V4.125C15 4.33211 14.8321 4.5 14.625 4.5H3.375C3.16789 4.5 3 4.33211 3 4.125V3.375C3 3.16789 3.16789 3 3.375 3H6.75V2.25C6.75 1.83579 7.08579 1.5 7.5 1.5H10.5C10.9142 1.5 11.25 1.83579 11.25 2.25V3ZM4.4025 15.105L3.75 6H14.25L13.6125 15.105C13.5573 15.8922 12.9016 16.5019 12.1125 16.5H5.9025C5.1134 16.5019 4.45773 15.8922 4.4025 15.105Z" fill="#EB5757"/>
</svg>
