<svg width="18" height="18" viewBox="0 0 18 18" fill="none" xmlns="http://www.w3.org/2000/svg">
<path d="M14.25 8.625V9.375C14.25 9.58211 14.0821 9.75 13.875 9.75H9.75V13.875C9.75 14.0821 9.58211 14.25 9.375 14.25H8.625C8.41789 14.25 8.25 14.0821 8.25 13.875V9.75H4.125C3.91789 9.75 3.75 9.58211 3.75 9.375V8.625C3.75 8.41789 3.91789 8.25 4.125 8.25H8.25V4.125C8.25 3.91789 8.41789 3.75 8.625 3.75H9.375C9.58211 3.75 9.75 3.91789 9.75 4.125V8.25H13.875C14.0821 8.25 14.25 8.41789 14.25 8.625Z" fill="black"/>
</svg>
