<svg width="21" height="21" viewBox="0 0 21 21" fill="none" xmlns="http://www.w3.org/2000/svg">
<path d="M19.6165 11.9988C19.3262 11.2612 19.3262 10.4428 19.6165 9.70514L19.7866 9.25035C20.4061 7.65079 19.6558 5.85131 18.076 5.1474L17.6259 4.92001C16.91 4.59381 16.3354 4.02589 16.0054 3.31838L15.8053 2.87348C15.0931 1.31209 13.2724 0.570613 11.654 1.18287L11.1938 1.35094C10.4475 1.63785 9.6194 1.63785 8.87305 1.35094L8.4129 1.18287C6.78596 0.551888 4.94455 1.29641 4.23155 2.87348L4.00148 3.31838C3.67142 4.02589 3.09681 4.59381 2.38095 4.92001L1.93081 5.11774C0.350995 5.82165 -0.399223 7.62113 0.220252 9.22069L0.390307 9.67548C0.680603 10.4131 0.680603 11.2315 0.390307 11.9692L0.220252 12.424C-0.399223 14.0235 0.350995 15.823 1.93081 16.5269L2.38095 16.7246C3.10725 17.0655 3.68326 17.6558 4.00148 18.3856L4.20154 18.8305C4.91375 20.3919 6.73446 21.1334 8.35288 20.5211L8.81303 20.353C9.55938 20.0661 10.3874 20.0661 11.1338 20.353L11.5939 20.5211C13.2124 21.1334 15.0331 20.3919 15.7453 18.8305L15.9453 18.3856C16.2902 17.6678 16.8875 17.0985 17.6259 16.784L18.076 16.5862C19.6558 15.8823 20.4061 14.0828 19.7866 12.4833L19.6165 11.9988Z" fill="#FAAD13"/>
</svg>
