<svg width="24" height="24" viewBox="0 0 24 24" fill="none" xmlns="http://www.w3.org/2000/svg">
<path d="M7 2C6.448 2 6 2.448 6 3V5C6 5.552 6.448 6 7 6H17C17.552 6 18 5.552 18 5V3C18 2.448 17.552 2 17 2H7ZM5 8C3.35 8 2 9.35 2 11V15C2 16.105 2.895 17 4 17H6V19C6 20.105 6.895 21 8 21H16C17.105 21 18 20.105 18 19V17H20C21.105 17 22 16.105 22 15V11C22 9.35 20.65 8 19 8H5ZM19 10C19.6 10 20 10.4 20 11C20 11.6 19.6 12 19 12C18.4 12 18 11.6 18 11C18 10.4 18.4 10 19 10ZM8.5 14H15.5C15.776 14 16 14.224 16 14.5V18.5C16 18.776 15.776 19 15.5 19H8.5C8.224 19 8 18.776 8 18.5V14.5C8 14.224 8.224 14 8.5 14Z" fill="#979797"/>
</svg>
