<?xml version="1.0" encoding="UTF-8"?>
<svg width="56px" height="56px" viewBox="0 0 56 56" version="1.1" xmlns="http://www.w3.org/2000/svg" xmlns:xlink="http://www.w3.org/1999/xlink">
    <!-- Generator: Sketch 64 (93537) - https://sketch.com -->
    <title>Group 39</title>
    <desc>Created with Sketch.</desc>
    <g id="Page-1" stroke="none" stroke-width="1" fill="none" fill-rule="evenodd">
        <g id="Group-39" fill="#8D52D9" fill-rule="nonzero">
            <g id="Group" opacity="0.05">
                <circle id="Oval" cx="28" cy="28" r="28"></circle>
            </g>
            <g id="Group" transform="translate(16.000000, 16.000000)">
                <path d="M16.1377,0.8579 C13.4498,0.8579 11.0709,3.8107 9.6387,7.5041 C10.8404,6.3024 12.2481,7.2442 12.3805,7.2589 C12.4002,7.2197 13.4645,5.9444 13.4645,5.9444 C13.4645,5.9444 15.8483,9.0737 16.589,10.972 C17.8447,13.8855 18.036,16.4802 17.104,18.6678 C16.4173,20.3257 15.0832,21.7138 13.2536,22.7046 C14.1512,22.9891 15.1224,23.1216 16.1328,23.1216 C20.4786,23.1216 24.0004051,20.7377 24.0004051,14.5869 C24.0053,8.4606 20.4786,0.8579 16.1377,0.8579 Z" id="Path"></path>
                <path d="M15.7008,11.3741 C15.1269,10.04 14.3274,8.7255 13.4151,7.509 C13.2238,7.7199 13.0914,8.0044 12.8608,8.1369 C12.233,8.4998 11.4335,7.7543 10.7272,7.9652 C10.0012,8.1761 9.8148,9.2601 9.0693,9.4122 C8.2109,9.5838 7.6027,8.3429 6.7443,8.4017 C6.6119,9.525 6.4991,10.6482 6.3617,11.7714 C5.0472,11.1829 3.7523,10.5894 2.4378,9.9811 C2.2857,11.5066 2.3789,13.0467 2.7615,14.5329 C1.8492,14.1504 0.9319,13.7334 0,13.3312 C0.2649,14.8371 0.7063,16.3036 1.2753,17.6378 C3.7327,23.2785 7.9068,24.0584 11.8847,22.322 C15.8627,20.5857 18.1582,17.0149 15.7008,11.3741 Z" id="Path"></path>
            </g>
        </g>
    </g>
</svg>