<?xml version="1.0" encoding="UTF-8"?>
<svg width="56px" height="56px" viewBox="0 0 56 56" version="1.1" xmlns="http://www.w3.org/2000/svg" xmlns:xlink="http://www.w3.org/1999/xlink">
    <!-- Generator: Sketch 64 (93537) - https://sketch.com -->
    <title>quality</title>
    <desc>Created with Sketch.</desc>
    <g id="Page-1" stroke="none" stroke-width="1" fill="none" fill-rule="evenodd">
        <g id="quality" fill="#8D52D9" fill-rule="nonzero">
            <g id="Group" opacity="0.05">
                <circle id="Oval" cx="28" cy="28" r="28"></circle>
            </g>
            <path d="M25.9434,18.0001 C25.7075,18.0089 25.4689,18.055 25.2344,18.1407 C24.2954,18.4817 23.711,19.3497 23.748,20.3497 C23.752,20.4567 23.6993,20.5226 23.6543,20.5606 C23.6083,20.5986 23.5346,20.6373 23.4316,20.6153 C22.4556,20.4033 21.4961,20.8294 20.9961,21.6954 C20.4951,22.5614 20.6063,23.6018 21.2773,24.3438 C21.3523,24.4268 21.3498,24.5195 21.3418,24.5665 C21.3308,24.6245 21.2991,24.702 21.2051,24.752 C20.3211,25.22 19.8612,26.1596 20.0352,27.1446 C20.2092,28.1296 20.9621,28.8553 21.9531,28.9923 C22.0571,29.0063 22.1155,29.0692 22.1445,29.1192 C22.1735,29.1692 22.1982,29.2507 22.1582,29.3497 C21.8507,30.1071 21.9709,30.9208 22.4414,31.545 L19.8574,36.0001 L23.3574,36.0001 L23.3574,36.002 L24.8477,39.2696 L27.9844,34.0411 L31.1211,39.2696 L32.6113,36.0001 L36.1113,36.0001 L33.543,31.5724 C34.0304,30.9449 34.1564,30.1192 33.8438,29.3497 C33.8048,29.2517 33.8314,29.1702 33.8594,29.1192 C33.8884,29.0692 33.9468,29.0063 34.0508,28.9923 C35.0418,28.8553 35.7948,28.1296 35.9688,27.1446 C36.1427,26.1596 35.6828,25.22 34.7988,24.752 C34.7048,24.702 34.6731,24.6245 34.6621,24.5665 C34.6541,24.5195 34.6516,24.4268 34.7266,24.3438 C35.3976,23.6018 35.5088,22.5624 35.0078,21.6954 C34.5078,20.8284 33.5463,20.4043 32.5723,20.6153 C32.4693,20.6373 32.3946,20.5986 32.3496,20.5606 C32.3046,20.5226 32.2519,20.4557 32.2559,20.3497 C32.2929,19.3507 31.7085,18.4827 30.7695,18.1407 C29.8295,17.7987 28.824,18.087 28.209,18.877 C28.078,19.044 27.9259,19.045 27.7949,18.877 C27.3329,18.2845 26.6509,17.9737 25.9434,18.0001 Z M26.0801,20.0079 C26.1298,20.0218 26.1753,20.0531 26.2148,20.1036 C27.0758,21.2136 28.9222,21.2126 29.7852,20.1036 C29.8632,20.0036 29.964,19.9747 30.082,20.0177 C30.201,20.0607 30.2599,20.1475 30.2559,20.2735 C30.2299,20.9755 30.5235,21.6379 31.0625,22.0899 C31.6005,22.5419 32.3012,22.7164 32.9902,22.5684 C33.1172,22.5414 33.2094,22.5844 33.2734,22.6934 C33.3374,22.8034 33.3252,22.908 33.2402,23.002 C32.7682,23.524 32.5675,24.2192 32.6895,24.9122 C32.8125,25.6042 33.2384,26.1916 33.8594,26.5196 C33.9724,26.5786 34.0181,26.672 33.9961,26.797 C33.9741,26.922 33.8984,26.9929 33.7734,27.0099 C33.0764,27.1069 32.475,27.5122 32.123,28.1212 C31.772,28.7292 31.7233,29.4516 31.9883,30.1016 C32.0363,30.2186 32.0111,30.3204 31.9141,30.4024 C31.8161,30.4834 31.7105,30.4909 31.6055,30.4239 C31.0085,30.0499 30.2899,29.973 29.6289,30.213 C28.9689,30.454 28.465,30.9746 28.248,31.6446 C28.172,31.8866 27.828,31.8866 27.75,31.6446 C27.534,30.9756 27.0311,30.4549 26.3711,30.2149 C26.1171,30.1219 25.8567,30.0763 25.5957,30.0763 C25.1777,30.0763 24.7625,30.1939 24.3965,30.4259 C24.2885,30.4939 24.1869,30.4864 24.0879,30.4044 C23.9919,30.3224 23.9647,30.2216 24.0117,30.1056 C24.2767,29.4546 24.228,28.7302 23.877,28.1212 C23.526,27.5112 22.9236,27.1088 22.2266,27.0118 C22.1016,26.9948 22.0269,26.922 22.0059,26.797 C21.9839,26.673 22.0286,26.5796 22.1406,26.5196 C22.7616,26.1916 23.1875,25.6061 23.3105,24.9141 C23.4325,24.2211 23.2337,23.525 22.7617,23.004 C22.6767,22.909 22.6655,22.8054 22.7285,22.6954 C22.7925,22.5864 22.8818,22.5424 23.0098,22.5704 C23.6998,22.7204 24.3995,22.5449 24.9375,22.0919 C25.4775,21.6409 25.7701,20.9785 25.7441,20.2755 C25.7401,20.1485 25.799,20.0617 25.918,20.0177 C25.9765,19.9967 26.0303,19.994 26.0801,20.0079 Z M29.793,23.5001 L27.5,25.7931 L26.207,24.5001 L24.793,25.9161 L27.5,28.6231 L31.207,24.9161 L29.793,23.5001 Z M25.5859,32.0763 C25.6249,32.0748 25.6595,32.0838 25.6875,32.0938 C25.7425,32.1138 25.8157,32.1589 25.8477,32.2599 C25.9406,32.5482 26.0865,32.8007 26.2676,33.0196 L25.0586,35.0333 C24.7051,34.4187 24.0769,34.0001 23.3574,34.0001 L23.3301,34.0001 L24.2188,32.4649 C24.6428,32.4711 25.0713,32.3609 25.459,32.1173 C25.504,32.0893 25.5469,32.0778 25.5859,32.0763 Z M30.418,32.0763 C30.457,32.0778 30.5009,32.0883 30.5469,32.1173 C30.9229,32.3533 31.3358,32.4643 31.748,32.4649 L32.6387,34.0001 L32.6113,34.0001 C31.8927,34.0001 31.2638,34.4174 30.9102,35.0333 L29.7148,33.0411 C29.9052,32.8176 30.0589,32.5578 30.1562,32.2599 C30.1892,32.1589 30.2624,32.1138 30.3164,32.0938 C30.3434,32.0838 30.379,32.0748 30.418,32.0763 Z" id="Shape"></path>
        </g>
    </g>
</svg>