<svg width="20" height="20" viewBox="0 0 20 20" fill="none" xmlns="http://www.w3.org/2000/svg">
<rect width="20" height="20" fill="#D8D8D8" fill-opacity="0.01"/>
<path fill-rule="evenodd" clip-rule="evenodd" d="M9.99996 18.3333C14.6023 18.3333 18.3333 14.6023 18.3333 9.99996C18.3333 5.39759 14.6023 1.66663 9.99996 1.66663C5.39759 1.66663 1.66663 5.39759 1.66663 9.99996C1.66663 14.6023 5.39759 18.3333 9.99996 18.3333ZM9.99996 16.6666C6.31806 16.6666 3.33329 13.6819 3.33329 9.99996C3.33329 6.31806 6.31806 3.33329 9.99996 3.33329C13.6819 3.33329 16.6666 6.31806 16.6666 9.99996C16.6666 13.6819 13.6819 16.6666 9.99996 16.6666ZM6.60494 9.79418C6.91416 9.45329 7.44117 9.42761 7.78206 9.73682L9.07951 10.9178L12.9001 7.31069C13.2347 6.99473 13.7622 7.00989 14.0781 7.34454C14.3941 7.67919 14.3789 8.20661 14.0443 8.52256L9.015 13.2709L8.44364 12.6452L8.16317 12.3327L6.66231 10.9713C6.32141 10.6621 6.29573 10.1351 6.60494 9.79418Z" fill="#8D52D9"/>
</svg>
