<svg width="20" height="20" viewBox="0 0 20 20" fill="none" xmlns="http://www.w3.org/2000/svg">
<path fill-rule="evenodd" clip-rule="evenodd" d="M3.33337 1.66663V3.51848H5.18523V4.76269C5.18523 5.99003 5.67248 7.16806 6.54156 8.03598L8.50554 9.99996L6.54156 11.9639C5.67248 12.8319 5.18523 14.0099 5.18523 15.2372V16.4814H3.33337V18.3333H5.18523H7.03708H12.5926H14.4445H16.2963V16.4814H14.4445V15.2372C14.4445 14.01 13.956 12.8318 13.0881 11.9639L11.1242 9.99996L13.0881 8.03598C13.9567 7.16741 14.4445 5.99003 14.4445 4.76269V3.51848H16.2963V1.66663H3.33337ZM7.03708 3.51848H12.5926V4.76269C12.5926 5.50016 12.301 6.20449 11.7788 6.72667L9.81486 8.69064L7.85088 6.72486C7.32922 6.20389 7.03708 5.50016 7.03708 4.76269V3.51848ZM11.7788 13.2733L9.81486 11.3093L7.85088 13.2751C7.32922 13.796 7.03708 14.4998 7.03708 15.2372V16.4814H12.5926V15.2372C12.5926 14.5015 12.2998 13.7943 11.7788 13.2733Z" fill="#8D52D9"/>
</svg>
