<?xml version="1.0" encoding="UTF-8"?>
<svg width="56px" height="56px" viewBox="0 0 56 56" version="1.1" xmlns="http://www.w3.org/2000/svg" xmlns:xlink="http://www.w3.org/1999/xlink">
    <!-- Generator: Sketch 64 (93537) - https://sketch.com -->
    <title>service</title>
    <desc>Created with Sketch.</desc>
    <g id="Page-1" stroke="none" stroke-width="1" fill="none" fill-rule="evenodd">
        <g id="service" fill="#8D52D9" fill-rule="nonzero">
            <g id="Group" opacity="0.05">
                <circle id="Oval" cx="28" cy="28" r="28"></circle>
            </g>
            <path d="M27.9629,17.9999 C27.8202,18.0054 27.6804,18.0414 27.5527,18.1054 C27.5527,18.1054 23.6667,19.9999 20,19.9999 C19.7348,19.9999 19.4805,20.1053 19.2929,20.2928 C19.1054,20.4804 19,20.7347 19,20.9999 L19,25.9999 C19,34.6666 27.6484,37.9355 27.6484,37.9355 C27.8751,38.0206 28.1249,38.0206 28.3516,37.9355 C28.3516,37.9355 37,34.6666 37,25.9999 L37,20.9999 C37,20.7347 36.8946,20.4804 36.7071,20.2928 C36.5195,20.1053 36.2652,19.9999 36,19.9999 C32.3333,19.9999 28.4473,18.1054 28.4473,18.1054 C28.2972,18.0301 28.1306,17.9939 27.9629,17.9999 Z M28,20.0761 C28.5669,20.3525 31.4332,21.6395 35,21.8964 L35,23.9999 L21,23.9999 L21,21.8964 C24.5668,21.6395 27.4331,20.3525 28,20.0761 Z M21,25.9999 L35,25.9999 C35,32.7718 28.9599,35.5021 28,35.8984 C27.0401,35.5021 21,32.7718 21,25.9999 Z" id="Shape"></path>
        </g>
    </g>
</svg>