<svg width="16" height="16" viewBox="0 0 16 16" fill="none" xmlns="http://www.w3.org/2000/svg">
<path d="M14 12.6684C14 13.772 13.1046 14.6667 12 14.6667C10.8954 14.6667 10 13.772 10 12.6684C9.99667 12.613 9.99667 12.5574 10 12.5019C10.0116 12.3736 9.94968 12.2498 9.84 12.1822L5.48 9.63767C5.37032 9.56736 5.22968 9.56736 5.12 9.63767C4.79312 9.8717 4.40211 9.9996 4 10.004C2.89543 10.004 2 9.10936 2 8.00574C2 6.90211 2.89543 6.00745 4 6.00745C4.40067 6.00798 4.79156 6.13119 5.12 6.36048C5.22968 6.43079 5.37032 6.43079 5.48 6.36048L9.84667 3.81599C9.94935 3.74896 10.0079 3.63187 10 3.50958C9.99667 3.45412 9.99667 3.39851 10 3.34306C9.99474 2.40492 10.6434 1.58944 11.5592 1.3827C12.4751 1.17596 13.4116 1.63363 13.8105 2.48291C14.2094 3.33219 13.9633 4.34438 13.2189 4.91615C12.4745 5.48791 11.4322 5.46529 10.7133 4.86176L6.15333 7.52615C6.04365 7.5938 5.9817 7.71761 5.99333 7.84587C6.00222 7.95671 6.00222 8.06808 5.99333 8.17892C5.9817 8.30718 6.04365 8.43099 6.15333 8.49865L10.52 11.0431C10.6297 11.1135 10.7703 11.1135 10.88 11.0431C11.2061 10.8067 11.5972 10.6765 12 10.6701C13.1046 10.6701 14 11.5648 14 12.6684Z" fill="black"/>
</svg>
