<svg width="16" height="18" viewBox="0 0 16 18" fill="none" xmlns="http://www.w3.org/2000/svg">
<path d="M16 15.1272C16 16.5758 14.8247 17.75 13.375 17.75C11.9253 17.75 10.75 16.5758 10.75 15.1272C10.7456 15.0545 10.7456 14.9815 10.75 14.9087C10.7653 14.7403 10.684 14.5778 10.54 14.489L4.8175 11.1494C4.67354 11.0571 4.48896 11.0571 4.345 11.1494C3.91597 11.4565 3.40277 11.6244 2.875 11.6302C1.42525 11.6302 0.25 10.456 0.25 9.00748C0.25 7.55897 1.42525 6.38472 2.875 6.38472C3.40088 6.38541 3.91392 6.54713 4.345 6.84807C4.48896 6.94036 4.67354 6.94036 4.8175 6.84807L10.5488 3.50843C10.6835 3.42046 10.7604 3.26678 10.75 3.10627C10.7456 3.03348 10.7456 2.9605 10.75 2.88771C10.7431 1.65641 11.5944 0.586087 12.7965 0.314742C13.9986 0.0433964 15.2277 0.644092 15.7513 1.75877C16.2749 2.87344 15.9518 4.20195 14.9748 4.95239C13.9977 5.70283 12.6298 5.67314 11.6863 4.881L5.70125 8.37801C5.5573 8.46681 5.47598 8.62931 5.49125 8.79765C5.50292 8.94313 5.50292 9.08931 5.49125 9.23478C5.47598 9.40313 5.5573 9.56562 5.70125 9.65442L11.4325 12.9941C11.5765 13.0863 11.761 13.0863 11.905 12.9941C12.333 12.6838 12.8463 12.5128 13.375 12.5045C14.8247 12.5045 16 13.6787 16 15.1272Z" fill="white"/>
</svg>
