<svg width="28" height="26" viewBox="0 0 28 26" fill="none" xmlns="http://www.w3.org/2000/svg">
<path d="M0.934592 11.1391C0.709322 10.9751 0.613012 10.6861 0.694824 10.4197L0.801387 10.0867C0.879297 9.82349 1.11353 9.63716 1.38749 9.62044L9.89925 8.94105L13.1628 1.09476C13.2722 0.819885 13.547 0.647472 13.8421 0.668473H14.1884C14.4666 0.66257 14.718 0.833722 14.8145 1.09476L18.0913 8.94105L26.6031 9.62044C26.877 9.63716 27.1113 9.82349 27.1892 10.0867L27.2958 10.4197C27.3864 10.6777 27.3066 10.9648 27.0959 11.1391L20.6755 16.6541L22.6469 24.9267C22.7119 25.1915 22.6122 25.4695 22.3938 25.6327L22.0075 25.8459C21.7822 25.9982 21.4869 25.9982 21.2616 25.8459L14.0153 21.4498L6.72899 25.8858C6.50366 26.0382 6.20837 26.0382 5.98304 25.8858L5.68999 25.686C5.4716 25.5228 5.37195 25.2448 5.4369 24.98L7.35505 16.6541L0.934592 11.1391Z" fill="#7C8087"/>
</svg>
