<svg width="14" height="13" viewBox="0 0 14 13" fill="none" xmlns="http://www.w3.org/2000/svg">
<path d="M0.467662 5.56951C0.355027 5.4875 0.306872 5.34302 0.347778 5.20983L0.40106 5.04331C0.440015 4.91172 0.55713 4.81855 0.69411 4.81019L4.94999 4.47049L6.58175 0.547348C6.63648 0.409912 6.77386 0.323706 6.92142 0.334206H7.09458C7.23369 0.331254 7.35937 0.41683 7.40761 0.547348L9.04603 4.47049L13.3019 4.81019C13.4389 4.81855 13.556 4.91172 13.595 5.04331L13.6482 5.20983C13.6936 5.33882 13.6537 5.48238 13.5483 5.56951L10.3381 8.32703L11.3238 12.4633C11.3563 12.5957 11.3065 12.7347 11.1973 12.8163L11.0041 12.9229C10.8915 12.9991 10.7438 12.9991 10.6312 12.9229L7.008 10.7249L3.36486 12.9429C3.2522 13.0191 3.10455 13.0191 2.99189 12.9429L2.84536 12.843C2.73617 12.7614 2.68634 12.6224 2.71882 12.49L3.67789 8.32703L0.467662 5.56951Z" fill="#7C8087"/>
</svg>
