<svg width="14" height="13" viewBox="0 0 14 13" fill="none" xmlns="http://www.w3.org/2000/svg">
<path d="M0.467296 5.56942C0.354661 5.48741 0.306506 5.34293 0.347412 5.20974L0.400694 5.04322C0.439648 4.91162 0.556764 4.81846 0.693743 4.8101L4.94963 4.4704L6.58138 0.547257C6.63612 0.409821 6.7735 0.323614 6.92105 0.334114H7.09422C7.23332 0.331163 7.35901 0.416739 7.40725 0.547257L9.04566 4.4704L13.3015 4.8101C13.4385 4.81846 13.5556 4.91162 13.5946 5.04322L13.6479 5.20974C13.6932 5.33872 13.6533 5.48228 13.548 5.56942L10.3377 8.32694L11.3235 12.4632C11.3559 12.5956 11.3061 12.7346 11.1969 12.8162L11.0038 12.9228C10.8911 12.999 10.7435 12.999 10.6308 12.9228L7.00763 10.7248L3.36449 12.9428C3.25183 13.019 3.10418 13.019 2.99152 12.9428L2.845 12.8429C2.7358 12.7613 2.68598 12.6223 2.71845 12.4899L3.67752 8.32694L0.467296 5.56942Z" fill="#FAAD13"/>
</svg>
