<svg width="12" height="9" viewBox="0 0 12 9" fill="none" xmlns="http://www.w3.org/2000/svg">
<path d="M11.2333 1.83333L4.16667 8.9C4.10408 8.9631 4.01888 8.9986 3.93 8.9986C3.84112 8.9986 3.75593 8.9631 3.69334 8.9L0.100003 5.30666C0.036899 5.24407 0.00140381 5.15888 0.00140381 5.07C0.00140381 4.98112 0.036899 4.89592 0.100003 4.83333L0.56667 4.36666C0.629259 4.30356 0.714457 4.26806 0.803337 4.26806C0.892216 4.26806 0.977414 4.30356 1.04 4.36666L3.92667 7.25333L10.2933 0.886663C10.4252 0.758808 10.6348 0.758808 10.7667 0.886663L11.2333 1.36C11.2964 1.42259 11.3319 1.50778 11.3319 1.59666C11.3319 1.68554 11.2964 1.77074 11.2333 1.83333Z" fill="#27AE60"/>
</svg>
