<svg width="8" height="8" viewBox="0 0 8 8" fill="none" xmlns="http://www.w3.org/2000/svg">
<path d="M7.9 6.95994C7.96311 7.02253 7.9986 7.10773 7.9986 7.19661C7.9986 7.28549 7.96311 7.37069 7.9 7.43328L7.43334 7.89994C7.37075 7.96305 7.28555 7.99854 7.19667 7.99854C7.10779 7.99854 7.02259 7.96305 6.96 7.89994L4 4.93994L1.04 7.89994C0.977414 7.96305 0.892216 7.99854 0.803336 7.99854C0.714457 7.99854 0.629259 7.96305 0.56667 7.89994L0.100003 7.43328C0.036899 7.37069 0.00140381 7.28549 0.00140381 7.19661C0.00140381 7.10773 0.036899 7.02253 0.100003 6.95994L3.06 3.99994L0.100003 1.03994C0.036899 0.977353 0.00140381 0.892155 0.00140381 0.803276C0.00140381 0.714396 0.036899 0.629198 0.100003 0.566609L0.56667 0.0999422C0.629259 0.036838 0.714457 0.00134277 0.803336 0.00134277C0.892216 0.00134277 0.977414 0.036838 1.04 0.0999422L4 3.05994L6.96 0.0999422C7.02259 0.036838 7.10779 0.00134277 7.19667 0.00134277C7.28555 0.00134277 7.37075 0.036838 7.43334 0.0999422L7.9 0.566609C7.96311 0.629198 7.9986 0.714396 7.9986 0.803276C7.9986 0.892155 7.96311 0.977353 7.9 1.03994L4.94 3.99994L7.9 6.95994Z" fill="#7C8087"/>
</svg>
