<svg width="40" height="40" viewBox="0 0 40 40" fill="none" xmlns="http://www.w3.org/2000/svg">
<path d="M27.677 17.0833C28.302 16.6145 28.8645 16.052 29.3333 15.3645C28.7083 15.6458 28.0833 15.8333 27.4583 15.8958C28.1458 15.4583 28.6458 14.8645 28.8958 14.0833C28.2395 14.4583 27.552 14.7395 26.802 14.8645C26.4895 14.552 26.1145 14.302 25.7083 14.1145C25.302 13.927 24.8645 13.8333 24.3958 13.8333C23.802 13.8333 23.2708 13.9895 22.7708 14.2708C22.2708 14.5833 21.8645 14.9895 21.5833 15.4895C21.2708 15.9895 21.1458 16.552 21.1458 17.1145C21.1458 17.3645 21.1458 17.6145 21.2083 17.8645C19.8645 17.802 18.6145 17.4895 17.427 16.8645C16.2395 16.2708 15.2708 15.4583 14.4583 14.427C14.1458 14.9583 13.9895 15.5208 13.9895 16.0833C13.9895 16.6458 14.1145 17.177 14.3958 17.6458C14.6458 18.1458 15.0208 18.5208 15.4583 18.8333C14.927 18.8333 14.427 18.677 13.9895 18.3958V18.4583C13.9895 19.2395 14.2395 19.927 14.7395 20.5208C15.2395 21.1458 15.8645 21.5208 16.6145 21.677C16.302 21.7395 16.0208 21.7708 15.7395 21.7708C15.552 21.7708 15.3333 21.7708 15.1458 21.7395C15.3333 22.3958 15.7083 22.927 16.2708 23.3645C16.8333 23.802 17.4583 23.9895 18.2083 23.9895C16.9895 24.927 15.6145 25.3958 14.1145 25.3958C13.802 25.3958 13.552 25.3958 13.3333 25.3645C14.8333 26.3645 16.5208 26.8333 18.3645 26.8333C20.2708 26.8333 21.9583 26.3645 23.4583 25.3645C24.802 24.4895 25.8645 23.3333 26.6145 21.8333C27.3333 20.4583 27.7083 18.9895 27.7083 17.4895C27.7083 17.302 27.677 17.177 27.677 17.0833Z" fill="white"/>
</svg>
