<svg width="20" height="20" viewBox="0 0 20 20" fill="none" xmlns="http://www.w3.org/2000/svg">
<rect width="20" height="20" fill="#D8D8D8" fill-opacity="0.01"/>
<path fill-rule="evenodd" clip-rule="evenodd" d="M4.16671 2.5C3.01599 2.5 2.08337 3.43262 2.08337 4.58333C2.08337 5.73405 3.01599 6.66667 4.16671 6.66667C5.31742 6.66667 6.25004 5.73405 6.25004 4.58333C6.25004 3.43262 5.31742 2.5 4.16671 2.5ZM12.2917 4.58333C12.1176 4.58333 11.9467 4.62728 11.7937 4.71191L11.7904 4.70703L8.55473 6.21419L4.14229 7.55859C4.14067 7.56022 4.13904 7.56022 4.13741 7.56022L4.12113 7.56673C3.40824 7.77344 2.91671 8.42448 2.91671 9.16667C2.91671 9.54427 3.04529 9.91048 3.28129 10.2067V10.2083L7.56515 15.5013H7.57003C7.96554 15.9749 8.54985 16.2484 9.16671 16.25C9.7266 16.25 10.2621 16.0238 10.6527 15.6234L13.9177 12.5L17.6693 10.3451C18.0697 10.1904 18.3334 9.80469 18.3334 9.375C18.3334 8.80046 17.8663 8.33333 17.2917 8.33333C17.111 8.33333 16.9353 8.38053 16.7774 8.47005L16.7758 8.46517L12.9167 10.2018L10.1498 12.2917L7.36495 8.82975L9.1016 8.23568L12.6514 6.60156C13.0616 6.4502 13.3334 6.0612 13.3334 5.625C13.3334 5.05046 12.8663 4.58333 12.2917 4.58333ZM9.16671 16.25H0.833374C0.683634 16.2484 0.543661 16.3265 0.467163 16.4567C0.392293 16.5869 0.392293 16.7464 0.467163 16.8766C0.543661 17.0068 0.683634 17.085 0.833374 17.0833H19.1667C19.3164 17.085 19.4564 17.0068 19.5329 16.8766C19.6078 16.7464 19.6078 16.5869 19.5329 16.4567C19.4564 16.3265 19.3164 16.2484 19.1667 16.25H9.16671Z" fill="#8D52D9"/>
</svg>
