<svg width="24" height="24" viewBox="0 0 24 24" fill="none" xmlns="http://www.w3.org/2000/svg">
<circle cx="12" cy="12" r="11.5" stroke="#E0E0E0"/>
<path fill-rule="evenodd" clip-rule="evenodd" d="M9.09519 6.1105C8.98922 6.04453 8.86606 6.00662 8.73882 6.00079C8.61159 5.99496 8.48504 6.02144 8.37266 6.07741C8.26027 6.13338 8.16627 6.21674 8.10064 6.31861C8.03502 6.42048 8.00024 6.53705 8 6.65591V17.3441C8.00024 17.4629 8.03502 17.5795 8.10064 17.6814C8.16627 17.7833 8.26027 17.8666 8.37266 17.9226C8.48504 17.9786 8.61159 18.005 8.73882 17.9992C8.86606 17.9934 8.98922 17.9555 9.09519 17.8895L11 16.7049V14.9166C11 14.2411 11.3628 13.6929 11.875 13.3815V13.2833C11.875 11.4464 13.3445 10.0346 15.1132 9.85304L9.09519 6.1105ZM14.7846 13.0996C14.8716 12.8671 15.1198 12.6496 15.4999 12.6496C15.8799 12.6496 16.1281 12.8671 16.2152 13.0996H14.7846Z" fill="#828282"/>
<path fill-rule="evenodd" clip-rule="evenodd" d="M18.125 14.0997V13.283C18.125 11.9299 16.9497 10.833 15.5 10.833C14.0503 10.833 12.875 11.9299 12.875 13.283V14.0997C12.3918 14.0997 12 14.4653 12 14.9163V18.183C12 18.634 12.3918 18.9997 12.875 18.9997H18.125C18.6082 18.9997 19 18.634 19 18.183V14.9163C19 14.4653 18.6082 14.0997 18.125 14.0997ZM13.7499 13.2827C13.7499 12.3806 14.5334 11.6493 15.4999 11.6493C16.4664 11.6493 17.2499 12.3806 17.2499 13.2827V14.0993H13.7499V13.2827ZM15.9376 17.366C16.1793 17.366 16.3751 17.1832 16.3751 16.9577V16.141C16.3751 15.9155 16.1793 15.7327 15.9376 15.7327H15.0626C14.821 15.7327 14.6251 15.9155 14.6251 16.141V16.9577C14.6251 17.1832 14.821 17.366 15.0626 17.366H15.9376Z" fill="#828282"/>
</svg>
