<?xml version="1.0" encoding="UTF-8"?>
<svg width="24px" height="24px" viewBox="0 0 24 24" version="1.1" xmlns="http://www.w3.org/2000/svg" xmlns:xlink="http://www.w3.org/1999/xlink">
    <title>play</title>
    <g id="Page-1" stroke="none" stroke-width="1" fill="none" fill-rule="evenodd">
        <g id="play" transform="translate(0.500000, 0.500000)">
            <circle id="Oval" stroke="#8D52D9" cx="11.5" cy="11.5" r="11.5"></circle>
            <path d="M9.0911,6.5007 C9.1928,6.5055 9.2914,6.5371 9.3762,6.5921 L16.2487,11.0441 C16.326,11.0941 16.3894,11.1619 16.4332,11.2414 C16.4771,11.3209 16.5,11.4098 16.5,11.5 C16.5,11.5902 16.4771,11.6791 16.4332,11.7586 C16.3894,11.8381 16.326,11.9059 16.2487,11.9559 L9.3762,16.4079 C9.2914,16.4629 9.1928,16.4945 9.0911,16.4993 C8.9893,16.5042 8.888,16.4821 8.7981,16.4355 C8.7082,16.3889 8.633,16.3194 8.5805,16.2345 C8.528,16.1496 8.5002,16.0525 8.5,15.9534 L8.5,7.0466 C8.5002,6.9475 8.528,6.8504 8.5805,6.7655 C8.633,6.6806 8.7082,6.6111 8.7981,6.5645 C8.888,6.5179 8.9893,6.4958 9.0911,6.5007 Z" id="Path" fill="#8D52D9" fill-rule="nonzero"></path>
        </g>
    </g>
</svg>